<svg xmlns="http://www.w3.org/2000/svg" xmlns:xlink="http://www.w3.org/1999/xlink" version="1.1" id="Layer_1" x="0px" y="0px" viewBox="402 -49.3 1060.2 238" style="enable-background:new 402 -49.3 1060.2 238;" xml:space="preserve">
<style type="text/css">
	.st0{fill:#ffffff;}
	.st1{fill:none;}
</style>
<g>
	<path class="st0" d="M515.1,53.3c-1.9,0.5-3.9,4.3-5,5.7c-0.5,0.6-2.4,3.9-3.2,4.1c2.5-0.4,5-0.8,7.5-1.2c3.6-0.6,5.8-1.3,7.4-4.9   c0.6-1.5,1.4-4.1,0.9-5.6C520.1,51.7,517.6,52.6,515.1,53.3z"/>
	<path class="st0" d="M521.3,178.7c6.6,2,17.7-1,24.2-2.5c24.1-5.5,49.2-21.2,64.1-41.5c33.5-45.4,21.1-121-20.9-156.8   c-7.7-6.6-16.4-12.2-25.6-16.5c-3.5-1.6-8.1-2.5-11.3-4.4c0.6,0.4,1.1,0.7,1.7,1.1c-1.4-0.6-2.7-1.2-4.3-1.9c-1-0.4-2-0.6-3.1-0.9   c-1-0.3-2.1-0.6-3.1-0.9c-0.6-0.2-1.1-0.5-1.6-0.8c0.6,0.4,1.3,0.8,2,1.3c0.9,0.6,2.6,0.3,4.2,0.9c0.3,0-0.1,0.7,0.5,0.8   c1.2,0.4,2.4,0.6,3.4,1.2c0.6,0.1,0.9,1.2,1.5,1.3c0.6,0.2,1.8,0.5,2.6,0.6c0.1,0,0.2,0,0.3,0C610.9-4.7,613.3,32,613.3,32l0.1,0.7   c-3.3-6.5-7.1-12.8-12.1-18.5c-39.7-45.9-102.2-48.5-150-13.5c-36.3,26.6-54.6,69.7-45.7,113.8c-1.5-7.8,0.8-15.7,1.9-23.4   c3.5-24.5,12.7-49.1,30.1-67.2c-6.6,6.8-10,20.2-12.2,29.1c-6,25.2-1.8,51.4,9.8,73.9c1.1-2.1,2.3-4.2,3.5-6.2   c2.9-4.8,5.9-9.6,8.8-14.4c5.7-9.7,10.9-20,12.1-31.3c5.8,1.4,12,1.1,17.7-0.6c2.7-0.8,5.8-3,5.2-5.7c-0.5-2.3-3.3-3.2-5.6-3.6   c-7-1.2-14-1.5-21.1-1.1c-3.6,0.2-7.3,0.6-10.8,0c-3.6-0.7-7.1-2.6-8.6-5.9c-2.1-4.5,0.1-9.8,2.7-14c8.5-13.8,21.1-24.8,35.2-32.9   c9-5.2,19.1-9.4,29.4-8.1c15,1.9,26.6,14.9,41.5,17.9c12.6,2.5,26.4-2.7,38.4,2.1c12.4,5,18.6,18.9,21.5,32   c2.3,10.7,3.2,21.7,2.7,32.6c-0.2,4.4-1.9,7.6-6.7,8c-9.8,0.8-19.7-6.3-22-15.9c-0.6,18.8-3.7,37.6-10.3,55.2   c-3.9,10.4-9.3,20.6-17.9,27.6c-15,12.2-39,11.3-53.1-2c11,9.4,27.4,11.9,40.8,6.3c2.2-0.9,4.5-2.3,5-4.6c0.7-3.1-2.2-5.9-5-7.5   c-12.4-7.4-27.5-9.2-42-8.1c-14,1.1-27.6,4.8-41.3,8c12.6,13,28.3,23,46,28.4c39.1,11.8,83.5,3.4,114.7-23.1   C588.1,176.1,553.3,188.5,521.3,178.7z"/>
	<path class="st0" d="M508.9,97.1c-1.2,1.7-3,3.7-3.5,5.7c-0.2,0.8-0.1,1.8,0.5,2.4c0.3,0.3,0.7,0.5,1.1,0.6c3.8,1.3,8.2-0.7,12-1.5   c2-0.5,4.1-1,6.1-1.5c8.3-2.3,16.8-4.7,24.4-8.9c5.1-2.9,9.9-7,12.6-12.3c4.1-7.9,1-17-4.6-23.3c-2.7-3-6.1-5.1-10-6.2   c-3.2-0.9-8-2-10.4,1.1c-1.2,1.6-1.2,3.5-1.8,5.3c-0.4,1.3-1.2,2.3-2,3.6c-3.4,5-6.9,9.9-10.3,14.9c-3.1,4.4-6.1,8.9-9.2,13.3   C512.1,92.5,510.5,94.8,508.9,97.1z M527.1,90.4c0.9-3.3,3.6-5.8,5.5-8.5c2.1-3,3.9-6.1,5.8-9.2c1.6-2.7,3.4-6,6.6-7.2   c0.4-0.2,0.9-0.3,1.3-0.3c0.1,0,0.2,0,0.4,0c1.7,0.2,2.6,2,3,3.6c0.6,3.1-0.3,6.4-1.9,9.1c-3,5.2-8.4,9.5-14,11.6   C533.1,89.8,526.7,92,527.1,90.4z"/>
	<path class="st0" d="M495.9,77.2c-6.3,9-12.7,18-19.3,26.9c-0.4,0.6-0.8,1.3-0.5,1.9c1,1.5,5.2,0.1,6.4-0.3   c2.2-0.8,4.2-2.1,5.9-3.7c3.1-3.1,6.6-6,9.5-9.4c4.4-5.1,8.2-10.5,12-16.1c0.4-0.6,6.5-9.2,6-9.6C507.7,65.1,500.4,71,495.9,77.2z"/>
	<path class="st0" d="M543.4-43.3c-0.3-0.2-0.5-0.1-0.8-0.1c0.5,0.2,0.9,0.4,1.4,0.7C543.8-42.9,543.6-43,543.4-43.3z"/>
	<path class="st0" d="M545.5-42c0.1,0,0.2,0,0.2,0l-0.5-0.2C545.4-42,545.5-42,545.5-42z"/>
	<path class="st0" d="M546.6-41.7c0.3,0.2,0.7,0.4,1.2,0.6C547.4-41.4,547-41.6,546.6-41.7z"/>
	<path class="st0" d="M545.8-41.9C545.8-41.9,545.8-41.9,545.8-41.9c0.2,0.1,0.5,0.2,0.8,0.2c-0.2-0.2-0.5-0.3-0.6-0.5   C546.1-42,546.1-41.9,545.8-41.9z"/>
	<path class="st0" d="M546-42.2c-0.1-0.1-0.2-0.2-0.2-0.3C545.8-42.4,545.9-42.3,546-42.2z"/>
	<path class="st0" d="M532.2-48.1c0.3,0,0.8,0.1,0.8,0.1c0.9,0.9,2.2,1.2,3.5,1.5c-0.1-0.2-0.3-0.4-0.4-0.6   c-0.7-0.2-0.8-0.1-0.3,0.3c-1.2-1-2.5-1.5-3.9-2C532-48.6,531.9-48.3,532.2-48.1z"/>
	<path class="st0" d="M619.1,156.8c-0.4,0.3-0.8,0.6-1.2,1c0.2-0.1,0.5-0.2,0.8-0.3C619,157.3,619,157.1,619.1,156.8z"/>
	<path class="st0" d="M616.5,158.8c0,0.1-0.1,0.1-0.1,0.2l0.4-0.4C616.7,158.7,616.6,158.8,616.5,158.8z"/>
	<path class="st0" d="M615.8,159.6c-0.3,0.2-0.7,0.5-1.1,0.9C615.2,160.2,615.5,159.9,615.8,159.6z"/>
	<path class="st0" d="M616.4,159c-0.2,0.2-0.4,0.4-0.6,0.6c0.3-0.2,0.5-0.3,0.7-0.3C616.4,159.3,616.2,159.3,616.4,159   C616.4,159,616.4,159,616.4,159z"/>
	<path class="st0" d="M616.6,159.3c0.1,0,0.3,0,0.4-0.1C616.8,159.2,616.7,159.2,616.6,159.3z"/>
	<path class="st0" d="M617.7,161.8c-0.2,0.2-0.6-0.4-0.9,0.1c-0.9,0.9-1.6,1.9-2.6,2.6c-0.3,0.5-1.5,0.3-1.9,0.8   c-0.5,0.5-1.2,1.4-1.7,2.1c-0.5,0.6-0.6,1,0.2,0.5c2.3-1.8,3.7-3.1,5.8-4.8c0.8-0.7,1.5-1.6,2.2-2.3c0.7-0.8,1.4-1.6,2.2-2.4   c0.4-0.4,0.9-0.7,1.4-1.1c-0.7,0.4-1.3,0.8-2,1.2C619.4,159,618.9,160.6,617.7,161.8z"/>
	<path class="st0" d="M627.9,149.5c-0.1,0.2-0.4,0.7-0.4,0.7c-1.3,0.4-2,1.4-2.8,2.5c0.2,0,0.4-0.1,0.7-0.1c0.5-0.5,0.4-0.7-0.2-0.4   c1.4-0.7,2.5-1.6,3.5-2.6C628.4,149.5,628.3,149.3,627.9,149.5z"/>
	<path class="st0" d="M407.3,123c0,0.3,0.2,0.5,0.4,0.7c-0.1-0.5-0.2-1-0.3-1.5C407.4,122.5,407.4,122.8,407.3,123z"/>
	<path class="st0" d="M407,120.3l0.2,0.5c0-0.1,0-0.2,0-0.3C407.1,120.5,407.1,120.4,407,120.3z"/>
	<path class="st0" d="M406.8,119.5c0-0.4-0.1-0.8-0.2-1.4C406.6,118.7,406.6,119.1,406.8,119.5z"/>
	<path class="st0" d="M406.7,120.3c0.1-0.2,0.2-0.3,0.3,0c0,0,0,0,0,0c-0.1-0.3-0.2-0.5-0.3-0.8   C406.8,119.8,406.8,120.1,406.7,120.3z"/>
	<path class="st0" d="M406.7,120.3c0,0.1-0.1,0.2-0.1,0.4C406.6,120.6,406.7,120.5,406.7,120.3z"/>
	<path class="st0" d="M404,120.1c-0.1-0.3,0.6-0.3,0.4-0.8c-0.4-1.2-0.9-2.3-1-3.5c-0.2-0.5,0.5-1.5,0.2-2c-0.2-0.6-0.7-1.7-1-2.4   c-0.3-0.7-0.6-1-0.5-0.1c0.5,2.9,0.9,4.8,1.4,7.4c0.3,1,0.7,2,1,3c0.4,1,0.7,2,1.1,3c0.2,0.6,0.2,1.2,0.3,1.7   c0-0.8-0.1-1.5-0.1-2.4C405.7,123,404.5,121.8,404,120.1z"/>
	<path class="st0" d="M408.6,130.6c-0.1,0.2-0.2,0.4-0.2,0.6c0.2,0.7,0.4,0.7,0.4,0.1c-0.1,1.5,0.2,2.9,0.6,4.3   c0.2-0.1,0.4-0.2,0.4-0.6c-0.1-0.2-0.4-0.7-0.4-0.7C409.6,133,409.1,131.8,408.6,130.6z"/>
</g>
<g>
	<path class="st1" d="M679.2,117.9c-0.3,0-0.7,0.2-1.3,0.5c-0.5,0.3-1.1,0.7-1.6,1.1c-0.6,0.4-1.1,0.8-1.6,1.1   c-0.5,0.3-0.9,0.5-1.2,0.5c-0.1,0-0.2,0-0.2-0.1c-0.4,0.1-0.8,0.3-1.1,0.5c-0.3,0.2-0.6,0.4-0.9,0.5h0.1c0.2,0,0.6-0.1,1.2-0.3   c0.6-0.2,1.2-0.4,1.8-0.6c0.6-0.3,1.2-0.5,1.8-0.8c0.6-0.3,0.9-0.5,1.1-0.7c-0.1-0.1-0.2-0.2-0.2-0.2h-0.3c0.2-0.1,0.3-0.2,0.5-0.3   c0.2-0.1,0.4-0.2,0.6-0.2c0.1,0,0.2,0,0.3,0c0.1,0,0.2,0,0.3,0c0.2,0,0.3,0,0.4-0.1c0.1-0.1,0.3-0.2,0.5-0.3l0.2-0.8   c-0.1,0-0.1,0-0.1,0C679.3,117.9,679.3,117.9,679.2,117.9z"/>
	<path class="st1" d="M678.8,117.1c-0.3,0.1-0.6,0.2-0.9,0.4c-0.3,0.2-0.5,0.3-0.5,0.5c0,0.1,0.1,0.1,0.2,0.1c0.3,0,0.8-0.2,1.4-0.5   c0.7-0.4,1.1-0.6,1.4-0.8c-0.1,0-0.3,0-0.6,0.1C679.5,116.9,679.2,117,678.8,117.1z"/>
	<path class="st1" d="M672.1,120.3C672.1,120.2,672.1,120.2,672.1,120.3c0-0.2,0-0.2,0-0.2c0,0-0.1,0-0.1-0.1c0,0-0.1,0-0.1-0.1   c-1.3,0.7-2.7,1.3-4,1.9c-1.4,0.6-2.7,1.2-4.1,1.9l0.1,0.1c0.2,0,0.6-0.1,1.2-0.3c0.6-0.2,1.2-0.4,1.8-0.7c0.6-0.3,1.2-0.5,1.8-0.8   c0.6-0.3,1-0.4,1.2-0.5c0.3-0.2,0.5-0.3,0.6-0.3c0.1-0.1,0.2-0.1,0.3-0.2c0.1-0.1,0.2-0.1,0.3-0.2c0.2-0.1,0.5-0.1,0.9-0.2   C672,120.4,672,120.3,672.1,120.3z"/>
	<path class="st1" d="M809.1,62.9c0-0.5,0-1,0-1.6c0-1.5-0.1-2.9-0.4-4.1c-0.3-1.2-0.7-2.3-1.4-3.2c-0.7-0.9-1.6-1.6-2.8-2.2   c-1.2-0.5-2.7-0.8-4.5-0.9c0,0.1,0.1,0.3,0.1,0.5c0,0.2-0.2,0.4-0.6,0.6c-0.4,0.2-0.8,0.3-1.1,0.3c-0.6,0-1-0.2-1.2-0.7   c0,0-0.1-0.1-0.2-0.2c-0.1-0.1-0.2-0.2-0.2-0.4V51c-0.8-0.2-1.5-0.6-2-1.2c-0.2,0.1-0.4,0.2-0.6,0.3c-0.2,0.1-0.5,0.2-0.7,0.2   c-0.6,0-1-0.2-1.2-0.7c0,0-0.1-0.1-0.2-0.2c-0.1-0.1-0.2-0.2-0.2-0.4c0-0.2,0.1-0.4,0.4-0.6c0.1-0.2,0.2-0.3,0.4-0.4l1.5,0.5   c-0.2-0.4-0.3-0.8-0.3-1.2c-0.1-0.4-0.1-0.8-0.1-1.2c0-1.5,0.4-2.8,1.1-3.7c-6.3,2.1-11.8,5-16.5,8.7c-4.7,3.8-8.4,8.3-11,13.5   h41.6C809,64,809,63.4,809.1,62.9z M791.1,46.5c0-0.1-0.1-0.2-0.2-0.3c-0.1,0-0.1,0-0.1-0.1l-0.2-0.3c0-0.1,0.1-0.2,0.2-0.4   c0.1-0.1,0.1-0.2,0.2-0.2c0.7,0.2,1.2,0.4,1.4,0.5c0.2,0.1,0.3,0.2,0.3,0.2c0,0.3-0.2,0.4-0.7,0.6c-0.5,0.1-0.8,0.2-0.9,0.2   C791.2,46.6,791.1,46.6,791.1,46.5z"/>
	<path class="st1" d="M673,119.5c0.3-0.1,0.5-0.2,0.8-0.3l0.9-0.5c0.2,0,0.2,0.1,0.2,0.2c0,0.1,0,0.2,0.2,0.3c0-0.1,0-0.1,0-0.2   c0-0.1,0-0.1,0-0.2v-0.2l0.1,0.2l0.3,0.1l0.5-0.2c0.3-0.1,0.5-0.2,0.5-0.2l-0.5-0.3c0-0.1,0-0.1,0.1-0.2c0-0.1,0.1-0.1,0.1-0.2   c0-0.1,0.1-0.1,0.2-0.2c-0.3,0.1-0.6,0.2-0.9,0.3c-0.4,0.2-0.8,0.4-1.2,0.6c-0.4,0.2-0.8,0.4-1.3,0.6c-0.4,0.2-0.7,0.3-0.9,0.3   c0.1,0,0.1,0.1,0.2,0.1l0.1-0.1l-0.2,0.5l0.3-0.5C672.6,119.7,672.8,119.6,673,119.5z"/>
	<path class="st1" d="M885,93c-1,0.3-2.3,0.6-3.9,1c-1.6,0.4-3.1,0.9-4.5,1.3c-1.5,0.4-2.7,0.8-3.8,1.2c-1.1,0.4-1.6,0.6-1.6,0.6   h0.1c0.3,0,1.3-0.2,3-0.5c1.7-0.4,4.3-1,8-1.8L885,93z"/>
	<path class="st1" d="M763.2,82.6c0,1.9,0.2,3.6,0.6,5.1c0.4,1.5,1.2,2.8,2.2,3.9c1.1,1.1,2.5,1.9,4.3,2.5c1.8,0.6,4,0.9,6.8,0.9   c4.2,0,8-0.6,11.4-1.7c3.4-1.1,6.4-2.7,9-4.8c2.6-2.1,4.8-4.5,6.5-7.4c1.7-2.9,3-6.1,3.9-9.5h-1.5c-0.3,0-0.5,0-0.7,0   c-0.2,0-0.5,0-0.7-0.1h-5.6c-0.3,0-0.5,0-0.7,0c-0.2,0-0.5,0-0.7,0c0,0,0-0.1,0.1-0.1h-4.5c-0.3,0-0.5,0-0.6-0.1h0.5   c0.1,0,0.2,0,0.2-0.1h-0.5c-0.1,0-0.1,0-0.1,0c0,0-0.1,0-0.1,0h0.2c0.3,0,0.5,0,0.6,0s0.4,0,0.6-0.1h0.2c0.2,0,0.6-0.1,1.1-0.1h0.5   c0.2,0,0.4,0,0.6-0.1c0.2-0.1,0.4-0.1,0.7-0.1h0.9c0.6-0.2,1.5-0.3,2.7-0.3c0.5,0,1,0,1.6,0c0.5,0,1.1,0,1.6,0c0.5,0,0.9,0,1.4,0   c0.5,0,0.9-0.1,1.4-0.1h1.4l0.2-0.9l-43.1,0.2C763.9,73.6,763.2,78,763.2,82.6z M788.3,70.3c0.1-0.1,0.1-0.2,0.2-0.2   c0.7,0.2,1.2,0.4,1.4,0.5c0.2,0.1,0.3,0.2,0.3,0.2c0,0.3-0.2,0.4-0.7,0.6c-0.5,0.1-0.8,0.2-0.9,0.2c-0.1,0-0.2,0-0.2-0.1   c0-0.1-0.1-0.2-0.2-0.3c-0.1,0-0.1,0-0.1-0.1l-0.2-0.3C788.1,70.6,788.2,70.4,788.3,70.3z"/>
	<path class="st1" d="M685.8,103.6c-0.4,0.2-0.8,0.4-1.1,0.6c-0.4,0.2-0.7,0.5-0.9,0.9l4.1-2.3l0.3-0.5c-0.4,0.3-0.7,0.5-1.1,0.6   C686.7,103.2,686.3,103.4,685.8,103.6z"/>
	<path class="st1" d="M664.5,120.6c0.2,0,0.3,0,0.3,0.1c0.4-0.1,0.8-0.2,1.2-0.4c0.4-0.2,0.8-0.4,1.2-0.7c0.4-0.3,0.7-0.6,1-0.9   c0.3-0.3,0.5-0.6,0.6-0.8h-0.1h-0.2c-0.1,0-0.1,0-0.1-0.1c-1,0.7-1.9,1.3-2.7,1.7c-0.8,0.4-1.6,0.9-2.3,1.5c0.2,0,0.4-0.1,0.5-0.2   C664.2,120.6,664.3,120.6,664.5,120.6z"/>
	<path class="st1" d="M667,123.5c0.6-0.2,1.1-0.3,1.7-0.5c0.6-0.2,1-0.5,1.2-0.8c-0.6,0.4-1.1,0.6-1.6,0.8   C667.9,123.2,667.4,123.4,667,123.5z"/>
	<path class="st1" d="M667.8,120.6c0.3-0.1,0.5-0.2,0.8-0.3c0.3-0.1,0.5-0.3,0.7-0.7c-0.3,0.2-0.5,0.3-0.8,0.5   C668.3,120.2,668.1,120.4,667.8,120.6z"/>
	<polygon class="st1" points="669.4,123.1 669.8,123.1 669.5,122.9  "/>
	<path class="st1" d="M889.9,97.6L889.9,97.6C890,97.7,890,97.6,889.9,97.6z"/>
	<path class="st1" d="M1041.5,62.9c-0.2-0.3-0.4-0.4-0.8-0.4l-6-0.2c-0.1,0-0.1,0-0.2,0c-0.1,0-0.2,0-0.3,0c0.3,0.1,0.5,0.2,0.7,0.2   L1041.5,62.9z"/>
	<path class="st1" d="M1029.1,99.5c0.1,0,0.1,0,0.2,0C1029.2,99.5,1029.1,99.5,1029.1,99.5z"/>
	<path class="st1" d="M1026.5,100.1c0.3-0.1,0.5-0.2,0.5-0.5h-1.7c0,0.2,0,0.3,0.2,0.5C1025.8,100.2,1026.2,100.2,1026.5,100.1z"/>
	<path class="st1" d="M1053.1,93.4c0.1-0.5,0.2-0.8,0.2-0.9c-0.1,0.1-0.2,0.5-0.3,1.2c0,0.2-0.1,0.3-0.1,0.5c0.1,0,0.1,0,0.2,0   C1053,93.9,1053,93.7,1053.1,93.4z"/>
	<path class="st1" d="M1052.6,95c-0.1,0.3-0.2,0.7-0.3,1.1c-0.2,0.9-0.4,1.7-0.6,2.4c-0.2,0.8-0.3,1.2-0.3,1.4   c0.3-0.1,0.5-0.4,0.6-0.8c0.2-0.5,0.2-0.7,0.2-0.8v-0.2c0-0.2,0.1-0.5,0.2-1.1c0.1-0.6,0.2-1.1,0.3-1.7c0-0.1,0-0.1,0-0.2   C1052.7,95,1052.7,95,1052.6,95z"/>
	<path class="st1" d="M881.1,101.2c0.1,0.1,0.1,0.2,0.2,0.3c1-0.3,1.4-0.6,1.4-1l-1.7,0.5C881,101,881,101.1,881.1,101.2z"/>
	<path class="st1" d="M961.3,93c-1,0.3-2.3,0.6-3.9,1c-1.6,0.4-3.1,0.9-4.5,1.3c-1.5,0.4-2.7,0.8-3.8,1.2c-1.1,0.4-1.6,0.6-1.6,0.6   h0.1c0.3,0,1.3-0.2,3-0.5c1.7-0.4,4.3-1,8-1.8L961.3,93z"/>
	<path class="st1" d="M680,106.3c0,0.1,0.2,0.2,0.4,0.2c0.3,0,0.5-0.1,0.8-0.2c0.3-0.2,0.5-0.3,0.6-0.5c-0.4,0.2-0.7,0.3-0.9,0.4   C680.6,106.2,680.3,106.3,680,106.3z"/>
	<path class="st1" d="M1058.8,97.9c0-0.1,0-0.1-0.1-0.2l-0.2-0.2c-0.1,0.1-0.2,0.2-0.2,0.2c0,0.1-0.1,0.1-0.1,0.2   c-0.1,0.1-0.1,0.1-0.1,0.2c-0.4,1.2-0.7,2.1-0.9,2.7c-0.2,0.6-0.3,0.9-0.3,1.1v0.1c0,0,0.2-0.2,0.4-0.6c0.2-0.4,0.5-0.8,0.7-1.2   c0.2-0.4,0.5-1,0.9-1.8l-0.2-0.4C1058.9,98,1058.8,97.9,1058.8,97.9z"/>
	<path class="st1" d="M1048.5,63.3c-0.1-0.3-0.3-0.5-0.7-0.6c-0.4-0.1-0.8-0.2-1.3-0.2c-0.5,0-1,0-1.6,0c-0.6,0-1.1,0-1.6-0.1   c0.4,0.4,0.6,0.6,0.7,0.8L1048.5,63.3z"/>
	<path class="st1" d="M966.3,97.6L966.3,97.6C966.3,97.7,966.3,97.6,966.3,97.6z"/>
	<path class="st1" d="M957.4,101.2c0.1,0.1,0.1,0.2,0.2,0.3c1-0.3,1.4-0.6,1.4-1l-1.7,0.5C957.3,101,957.4,101.1,957.4,101.2z"/>
	<path class="st1" d="M1083.7,65.1c0.1,0,0.1,0,0.2-0.1c-0.4,0-0.8,0-1.3,0C1083.1,65,1083.5,65,1083.7,65.1z"/>
	<path class="st1" d="M1160.5,108.3c0.4-0.7,0.6-1.4,0.6-2.1l-1.1,1.1c0,0.6-0.1,1.1-0.4,1.6c-0.3,0.5-0.6,1-0.9,1.5l0.4-0.2   C1159.6,109.6,1160,109,1160.5,108.3z"/>
	<polygon class="st1" points="1158.7,110.4 1157.8,111.2 1157.7,111.3 1158.1,111.1  "/>
	<path class="st1" d="M1051.8,70.1c0.5,0,1.1,0,1.9,0c0.8,0,1.7,0,2.5,0c0.3,0,0.5,0,0.7,0c0.1-0.2,0.1-0.4,0.2-0.6   c-0.8,0-1.5,0-2.2,0h-2.9c0,0.1-0.1,0.2-0.1,0.2C1052,69.9,1051.9,70,1051.8,70.1z"/>
	<path class="st1" d="M1055.6,70.9c-0.4,0.1-0.9,0.2-1.4,0.2c-0.5,0.1-1.1,0.2-1.7,0.3c-0.6,0.1-1,0.2-1.4,0.2   c1.4,0.1,2.4,0.1,3,0.1c0.6,0,0.9,0.1,0.9,0.1c0,0.1-0.2,0.1-0.5,0.1c-0.4,0-0.8,0.1-1.4,0.1c-0.6,0-1.2,0.1-1.9,0.1   c-0.7,0-1.4,0.1-2.1,0.1c0.1,0.2,0.2,0.3,0.3,0.5c0.8,0.1,1.6,0.1,2.4,0.2c0.8,0.1,1.5,0.1,2.2,0.2c0.7,0.1,1.2,0.1,1.6,0.2   c0.2,0,0.3,0,0.4,0.1c0.3-0.8,0.5-1.6,0.8-2.4h-0.4C1056.3,70.8,1056,70.9,1055.6,70.9z"/>
	<path class="st1" d="M1206.8,48.4c-0.3,0.7-0.5,1.5-0.8,2.3c0.1,0,0.3-0.1,0.4-0.1c0.4-0.1,0.5-0.4,0.5-0.8c0-0.1,0-0.1,0-0.2   c0,0,0-0.1,0-0.2c0-0.2,0.4-0.4,1.2-0.8c0.8-0.4,1.7-0.8,2.7-1.2c1-0.4,1.9-0.8,2.7-1.2c0.8-0.4,1.2-0.6,1.2-0.7h-0.1   c0.2-0.2,0.4-0.4,0.8-0.5l1.2-2.5c-0.8,0.2-1.5,0.3-2.3,0.5c-0.8,0.2-1.5,0.4-2.2,0.5l-3,3.9L1206.8,48.4z M1212.5,44.3   c0.3-0.1,0.6-0.2,0.9-0.3c0.4-0.1,0.8-0.2,1.2-0.3c0.4-0.1,0.8-0.1,1.1-0.1c0.2,0,0.2,0,0.2,0.1c0,0.1-0.1,0.1-0.4,0.2   c-0.3,0.1-0.6,0.2-1,0.3c-0.4,0.1-0.8,0.2-1.1,0.3c-0.4,0.1-0.7,0.1-0.9,0.1c-0.3,0-0.5-0.1-0.5-0.2   C1212.1,44.4,1212.2,44.3,1212.5,44.3z M1211,46c0.5-0.1,1-0.2,1.5-0.2c0.4-0.1,0.7-0.2,1-0.3c0.3-0.1,0.6-0.2,0.8-0.2h0.1   l-0.7,0.3c-0.1,0.1-0.2,0.1-0.4,0.1c-0.2,0-0.5,0-0.8,0.1c-0.5,0.2-0.9,0.3-1.3,0.4c-0.4,0.1-0.7,0.2-0.8,0.2l-0.1-0.1   C1210.3,46.2,1210.5,46.1,1211,46z"/>
	<path class="st1" d="M1204.2,57.3c0.8-0.3,1.8-0.5,2.8-0.8c1.1-0.3,2.1-0.6,3.3-0.9l0.2-0.4c-1.1,0.3-2.3,0.6-3.4,0.9   c-1.1,0.3-2.3,0.5-3.5,0.8c-0.1,0.2-0.2,0.4-0.3,0.7C1203.6,57.5,1203.9,57.4,1204.2,57.3z"/>
	<path class="st1" d="M1053,63c-1.2,0.1-2,0.2-2.4,0.3l8.5,0.4c0.1-0.3,0.2-0.6,0.3-1c-0.8,0-1.8,0-2.9,0.1   C1055.3,62.9,1054.2,63,1053,63z"/>
	<path class="st1" d="M1206.1,52c1.3-0.4,3.5-0.9,6.7-1.7c0.1-0.2,0.2-0.4,0.3-0.6c0.1-0.2,0.2-0.4,0.3-0.6l-7.7,2.3   c-0.1,0.2-0.2,0.4-0.3,0.7C1205.6,52.2,1205.9,52.1,1206.1,52z"/>
	<path class="st1" d="M1203.8,56.3l0.8-0.2c0,0,0.3-0.1,0.7-0.3c0.4-0.2,0.9-0.4,1.5-0.6c0.6-0.2,1.1-0.4,1.7-0.6   c0.5-0.2,0.9-0.4,1.3-0.5c-1.2,0.3-2,0.4-2.7,0.5c-0.6,0.1-1,0.1-1.3,0.1c-0.2,0-0.2,0-0.2-0.1c0,0,0.2-0.2,0.6-0.3   c0.4-0.2,0.9-0.3,1.5-0.6c0.6-0.2,1.3-0.5,2-0.7c0.7-0.2,1.5-0.5,2.2-0.7l0.4-0.8c-0.8,0.2-1.5,0.3-2.3,0.4   c-0.8,0.1-1.6,0.2-2.3,0.3c-0.7,0.1-1.4,0.2-1.9,0.3c-0.2,0-0.3,0-0.4,0.1c-0.3,0.7-0.6,1.5-0.9,2.3   C1204.1,55.4,1204,55.9,1203.8,56.3z"/>
	<path class="st1" d="M1205.9,64.4l4-7.9l-6.2,1.7c-0.3,0.1-0.5,0.1-0.7,0.1c-0.8,1.9-1.7,4-2.7,6.1   C1202,64.5,1203.9,64.5,1205.9,64.4z"/>
	<path class="st1" d="M972.5,88.6c-0.5,0.2-0.9,0.4-1.2,0.5c1.2-0.3,2-0.4,2.7-0.5c0.5-0.1,0.9-0.1,1.2-0.1c0.1-0.3,0.3-0.7,0.4-1   c-0.4,0.2-0.8,0.3-1.4,0.5C973.6,88.2,973.1,88.4,972.5,88.6z"/>
	<path class="st1" d="M662.4,115.7l1.4-0.5c0,0.1,0,0.1,0,0.1c0,0,0,0,0,0.1c0,0.1,0.1,0.1,0.2,0.2l0.2,0.2c1-0.8,2.1-1.5,3.3-2.1   c1.2-0.6,2.4-1.1,3.7-1.6l0.2-0.4c-1.6,0.6-3.1,1.2-4.5,1.9C665.4,114.2,664,114.9,662.4,115.7z"/>
	<path class="st1" d="M849.5,69.5c-1.6,4.4-2.4,8.9-2.4,13.6c0,1.6,0.2,3.1,0.6,4.5c0.4,1.4,1,2.6,1.9,3.6c0.9,1,2,1.8,3.4,2.3   c1.4,0.6,3.2,0.8,5.2,0.8c1.5,0,3.1-0.2,4.9-0.5l3.3-0.2l0.8-0.2l18-3.9l15.4-4.4c0.1-2.3,0.4-4.6,0.9-6.8c0.6-3,1.5-5.9,2.7-8.7   h-6.2c-4,0-7.2,0-9.4-0.1c-1.4,0-2.5-0.1-3.5-0.2c-0.9,0-1.8,0-2.7,0L849.5,69.5z"/>
	<path class="st1" d="M892.3,88.2c-1.7,0.5-3.2,0.8-4.4,1.1v0.1c0,0.1-0.7,0.3-2,0.6c-1.3,0.4-2.9,0.7-4.7,1.2   c-1.8,0.4-3.6,0.9-5.5,1.3c-1.9,0.5-3.4,0.8-4.6,1.1h0.5c3.5-0.8,6.6-1.5,9.1-2.1c2.5-0.6,4.9-1.2,7-1.8c2.1-0.6,4.3-1.1,6.4-1.7   c1.9-0.5,4-1,6.3-1.5c0-0.2,0-0.3,0-0.5c-0.9,0.3-2,0.6-3.2,0.9C895.7,87.3,894,87.7,892.3,88.2z"/>
	<path class="st1" d="M671.5,110.6c-0.3,0.2-0.6,0.3-0.8,0.4c0.4,0,0.7-0.1,0.9-0.2c0.2-0.2,0.5-0.3,0.8-0.3   c-0.1-0.1-0.1-0.1-0.2-0.1C672,110.4,671.8,110.4,671.5,110.6z"/>
	<path class="st1" d="M899.3,87.4c-0.4,0.2-0.9,0.4-1.5,0.6c-0.6,0.2-1.1,0.4-1.7,0.6c-0.5,0.2-0.9,0.4-1.2,0.5   c1.2-0.3,2-0.4,2.7-0.5c0.6-0.1,1-0.1,1.3-0.1c0.2,0,0.2,0,0.2,0.1c0,0.1-0.5,0.3-1.5,0.7c-1,0.4-2.1,0.8-3.4,1.2   c-1.2,0.4-2.4,0.8-3.4,1.1c-1,0.3-1.5,0.5-1.5,0.6c-0.1,0.1-0.1,0.1-0.2,0.1c0.4,0,1.1-0.2,2.2-0.3c1.1-0.2,2.2-0.4,3.4-0.6   c1.2-0.2,2.3-0.4,3.4-0.6c1-0.2,1.8-0.3,2.2-0.3c0.2,0,0.2,0,0.2,0.1c0,0.1-0.8,0.4-2.3,0.8c-1.5,0.4-4.1,1.1-7.9,2h-0.1   c-0.1,0-0.2,0-0.2,0c-0.1,0-0.1,0-0.2,0h0.1c-0.5,0.2-1.3,0.4-2.6,0.9c-1.3,0.4-2.6,0.9-4,1.3c-1.4,0.4-2.6,0.8-3.8,1.2   c-1.1,0.4-1.7,0.5-1.9,0.5c0,0.1,0.2,0.1,0.4,0.1c0.5,0,1.4-0.1,2.6-0.4c1.2-0.3,2.6-0.6,4.1-1c1.5-0.4,3.1-0.8,4.7-1.3   c1.6-0.5,3.1-0.9,4.5-1.4c1.4-0.4,2.5-0.8,3.5-1.1c0.9-0.3,1.5-0.5,1.6-0.5c0.4-0.1,0.8-0.2,1.3-0.2c0.2,0,0.3,0,0.4,0   c-0.2-1.2-0.2-2.4-0.2-3.7c0-0.3,0-0.5,0-0.8l-0.5,0.1C900,87.1,899.8,87.2,899.3,87.4z"/>
	<path class="st1" d="M673.3,109.9c0.2-0.1,0.4-0.2,0.6-0.3c0.3-0.1,0.5-0.4,0.8-0.8c-0.5,0.4-1,0.8-1.7,1.1H673.3z"/>
	<path class="st1" d="M968.7,88.2c-1.7,0.5-3.2,0.8-4.4,1.1v0.1c0,0.1-0.7,0.3-2,0.6c-1.3,0.4-2.9,0.7-4.7,1.2   c-1.8,0.4-3.6,0.9-5.5,1.3c-1.9,0.5-3.4,0.8-4.6,1.1h0.5c3.5-0.8,6.6-1.5,9.1-2.1c2.5-0.6,4.9-1.2,7-1.8c2.1-0.6,4.3-1.1,6.4-1.7   c1.6-0.4,3.4-0.9,5.3-1.3c0,0,0-0.1,0.1-0.1c0.1-0.1,0.1-0.3,0.2-0.4c-0.8,0.2-1.6,0.4-2.5,0.7C972.1,87.3,970.4,87.7,968.7,88.2z"/>
	<path class="st1" d="M970.6,90.4c-1.2,0.4-2.4,0.8-3.4,1.1c-1,0.3-1.5,0.5-1.5,0.6c-0.1,0.1-0.1,0.1-0.2,0.1c0.4,0,1.1-0.2,2.2-0.3   c1.1-0.2,2.2-0.4,3.4-0.6c1.1-0.2,2.2-0.4,3.2-0.5c0.1-0.2,0.1-0.5,0.2-0.8c0.1-0.4,0.3-0.7,0.4-1.1c-0.2,0.1-0.6,0.3-1,0.4   C972.9,89.6,971.8,90,970.6,90.4z"/>
	<path class="st1" d="M966.7,93.3c-0.1,0-0.2,0-0.2,0c-0.1,0-0.1,0-0.2,0h0.1c-0.5,0.2-1.3,0.4-2.6,0.9c-1.3,0.4-2.6,0.9-4,1.3   c-1.4,0.4-2.6,0.8-3.8,1.2c-1.1,0.4-1.7,0.5-1.9,0.5c0,0.1,0.2,0.1,0.4,0.1c0.5,0,1.4-0.1,2.6-0.4c1.2-0.3,2.6-0.6,4.1-1   c1.5-0.4,3.1-0.8,4.7-1.3c1.6-0.5,3.1-0.9,4.5-1.4c1.4-0.4,2.5-0.8,3.5-1.1c0,0,0.1,0,0.1,0c0-0.2,0-0.4,0.1-0.6   C972.5,91.9,970.1,92.5,966.7,93.3L966.7,93.3z"/>
	<path class="st1" d="M1055.2,44.1c-2.3,0.8-4.8,1.4-7.4,1.9c-2.6,0.5-5.5,0.9-8.7,1.3c-3.2,0.4-6.8,0.8-10.9,1.2   c-4,0.4-8.7,0.9-13.9,1.4c-0.5,0.5-1,1.3-1.6,2.3c-0.6,1-1.2,2.1-1.7,3.3c-0.5,1.2-1,2.3-1.4,3.4c-0.4,1.1-0.7,2-0.8,2.8   c0.7,0,1.5,0,2.4,0c0.9,0,1.9,0,3.1,0c0.3,0,0.5,0,0.8,0c0.3,0,0.6,0,0.9,0l0.9,0.1c2.1,0,4.3,0,6.5,0c2.2,0,4.2,0.1,5.9,0.2   c2.3-0.1,4.2-0.2,5.6-0.2c1.5,0,2.7-0.1,3.7-0.1c1,0,1.7,0,2.2,0c0.5,0,0.8,0,1,0c0.6,0,1.4,0,2.6,0c1.2,0,2.5,0.1,3.9,0.1   c1.4,0.1,2.9,0.1,4.4,0.2c1.5,0.1,2.9,0.1,4.1,0.2c1.1,0,2,0.1,2.7,0.2c1.4-4.3,2.5-7.7,3.4-10.1c1-2.9,1.9-4.8,2.5-5.8   c0.4-1.2,0.8-2.2,1.2-3.3c0.4-1,0.7-1.8,0.9-2.3c0.1-0.2,0.2-0.5,0.2-1c0.1-0.5,0.1-0.9,0.2-1.4c0-0.2,0.1-0.4,0.1-0.6   c-2.1,1.3-4.1,2.4-6,3.3C1059.8,42.4,1057.5,43.3,1055.2,44.1z"/>
	<path class="st1" d="M678,107.5l0.1,0.5c0.3-0.2,0.7-0.4,1.2-0.7c0.5-0.3,0.7-0.6,0.7-0.8c-0.4,0.3-0.8,0.4-1.1,0.5   C678.5,107,678.2,107.2,678,107.5z"/>
	<path class="st1" d="M925.8,69.5c-1.6,4.4-2.4,8.9-2.4,13.6c0,1.6,0.2,3.1,0.6,4.5c0.4,1.4,1,2.6,1.9,3.6c0.9,1,2,1.8,3.4,2.3   c1.4,0.6,3.2,0.8,5.2,0.8c1.5,0,3.1-0.2,4.9-0.5l3.3-0.2l0.8-0.2l18-3.9l15-4.3c0.5-1,0.9-2,1.5-3c0.8-1.6,1.6-3.2,2.5-4.8   c-1.8-0.5-2.9-1.3-3.4-2.3c-0.5-1-0.8-2-0.8-3c0-0.4,0-0.7,0-0.9c0-0.3,0.1-0.5,0.1-0.8c0.1-0.3,0.1-0.5,0.2-0.8   c-4.6,0-8.3,0-10.8-0.1c-1.8-0.1-3.2-0.1-4.4-0.2c-1,0-1.9,0-2.9,0L925.8,69.5z"/>
	<path class="st1" d="M1223.7,70.8c-0.2,0.4-0.4,0.8-0.7,1.3c-0.4,0.7-1.1,1.9-2.1,3.9c-1.1,1.9-2.3,4.2-3.8,6.7   c-1.4,2.6-3,5.3-4.6,8.1c-1.6,2.9-3.1,5.6-4.5,8.1c1.3-0.7,2.3-1,3.1-1.2c0.8-0.1,1.5-0.2,2.2-0.2c0.6,0,1,0,1.3,0.1   c0.3,0.1,0.6,0.2,1.2,0.2c0.5,0.1,1.4,0.2,2.5,0.2c1.1,0.1,2.9,0.1,5.3,0.2c2.4,0,5-0.8,7.8-2.3c2.8-1.5,5.6-3.6,8.4-6.2   c2.8-2.6,5.4-5.7,8-9.2c2.5-3.5,4.7-7.3,6.6-11.2l-30,0.2C1224.1,69.9,1223.9,70.3,1223.7,70.8z"/>
	<polygon class="st1" points="1162.2,113.9 1163.3,112.9 1163.4,112.3 1162.4,113.4  "/>
	<path class="st1" d="M1164.7,104.4l0.2-0.3l-0.4,0.4c0.1,0,0.1,0,0.1,0C1164.6,104.5,1164.7,104.4,1164.7,104.4z"/>
	<path class="st1" d="M1158.7,116.6l-1.1,1.1c-0.2,0.2-0.4,0.5-0.6,0.7c0.2,0.1,0.3,0.2,0.5,0.3c0.1-0.1,0.1-0.3,0.2-0.4   C1158,117.7,1158.3,117.1,1158.7,116.6z"/>
	<polygon class="st1" points="1164.2,114.9 1164.4,114.5 1163.8,115.1  "/>
	<path class="st1" d="M1164.4,122.7C1164.3,122.7,1164.3,122.7,1164.4,122.7c-0.2,0-0.3,0-0.4,0c-0.1,0-0.1,0-0.2,0   c-0.1,0.2-0.2,0.3-0.3,0.5c-0.2,0.4-0.5,0.7-0.7,1.1c0.2,0.1,0.4,0.3,0.6,0.5L1164.4,122.7z"/>
	<path class="st1" d="M1170.5,111.4c-0.9,1.6-1.7,2.9-2.4,4.1c-0.7,1.2-1.5,2.5-2.3,3.9c-0.5,0.9-1.1,1.7-1.6,2.5   c0.1,0.1,0.2,0.3,0.3,0.4L1170.5,111.4z"/>
	<path class="st1" d="M1061.1,81.6c-0.1,0.1-0.3,0.4-0.5,1c-0.2,0.6-0.4,1.2-0.7,1.9c-0.3,0.7-0.5,1.3-0.8,1.9   c-0.3,0.6-0.5,0.9-0.6,1c-0.1,0-0.2,0.5-0.6,1.5c-0.3,1-0.7,2.1-1.1,3.4c-0.4,1.3-0.7,2.5-1.1,3.6c-0.3,1.2-0.5,1.9-0.5,2.3   l0.1,0.2c0,0.1,0.2-0.3,0.5-1.1c0.3-0.8,0.7-1.8,1.1-3c0.4-1.2,0.9-2.5,1.4-3.8c0.5-1.4,1-2.6,1.4-3.8c0.4-1.2,0.9-2.6,1.5-4.2   c-0.1-0.1-0.1-0.2-0.1-0.3C1061.1,82,1061.1,81.8,1061.1,81.6z"/>
	<path class="st1" d="M1255.8,50.4c-1.7-1.1-4.2-1.6-7.5-1.6c-0.4,0-0.8,0-1.4,0c-0.6,0-1.2,0.1-1.9,0.1c-0.7,0-1.3,0.1-1.9,0.2   c-0.6,0.1-1.2,0.1-1.6,0.2l-3.3,0.2l-0.8,0.2l-5.8,1.3c-0.4,1.6-1,3.5-1.7,5.7c-0.8,2.2-1.8,4.8-3.3,7.9l29.3,0.5   c0.6-1.6,1.1-3.3,1.6-5c0.5-1.7,0.7-3.2,0.7-4.4C1258.4,53.3,1257.5,51.5,1255.8,50.4z"/>
	<path class="st1" d="M1164.4,114.5l0.8-0.7l0.9-1.6l0.3-0.2c0-0.1,0-0.1,0-0.1c0,0,0-0.1,0-0.1l-1.4,1.4L1164.4,114.5z"/>
	<path class="st1" d="M1195.4,97.9l-0.5,0.9c0.1,0,0.1,0,0.2-0.1L1195.4,97.9z"/>
	<path class="st1" d="M1195.1,107.2c-0.2,0.7-0.4,1.4-0.5,2.1l1-0.8c0.2-0.8,0.3-1.5,0.6-2.2c0.2-0.7,0.4-1.5,0.5-2.3l-1.1,1.1   C1195.5,105.7,1195.3,106.5,1195.1,107.2z"/>
	<path class="st1" d="M1199.6,101c-0.3,0.4-0.5,0.8-0.7,1.2c-0.2,0.4-0.4,0.8-0.5,1.2c0-0.1,0.2-0.2,0.3-0.4   c0.3-0.3,0.6-0.7,0.8-1.1l0.3-0.5L1199.6,101L1199.6,101z"/>
	<path class="st1" d="M1233.4,46.1c-0.1,0-0.2,0-0.4,0c-0.2,0-0.4,0.1-0.6,0.1v0.4C1233.2,46.4,1233.5,46.2,1233.4,46.1z"/>
	<polygon class="st1" points="1194,99.8 1194.5,98.8 1193.5,100.1  "/>
	<path class="st1" d="M1161.7,120.7c0.2,0.1,0.5,0.1,0.7,0.2c0.3-0.8,0.6-1.6,0.9-2.4c0.3-0.8,0.6-1.4,0.8-1.9   c0.2-0.5,0.3-0.8,0.3-0.9c0-0.1-0.1-0.1-0.2-0.1c-0.2,0-0.5,0.2-0.8,0.7c-0.4,0.5-0.8,1-1.2,1.7l-0.4,0.4v0.2l1.1-1.2v0.7l-1.1,1.1   v-0.5c-0.4,0.6-0.8,1.2-1.1,1.8c0,0,0,0,0,0C1160.9,120.5,1161.3,120.6,1161.7,120.7z"/>
	<polygon class="st1" points="1233.1,49.7 1231.9,49.9 1231.9,50.1 1233.6,49.7  "/>
	<path class="st1" d="M1191.7,101.9c-0.2,0-0.3,0.1-0.4,0.4l-0.6,3l0.1-0.1c0.2-0.4,0.3-0.8,0.5-1.2c0.2-0.4,0.4-0.8,0.5-1.2   l0.7-0.7c-0.1,0-0.2,0-0.4-0.1C1192,101.9,1191.9,101.9,1191.7,101.9z"/>
	<polygon class="st1" points="1169,106 1169.6,105.3 1167.9,107.1  "/>
	<path class="st1" d="M1205.2,103.7l-0.9,1.5c0.4-0.3,0.7-0.4,0.9-0.4c0.3,0,0.4-0.2,0.4-0.6   C1205.6,103.9,1205.5,103.7,1205.2,103.7z"/>
	<path class="st1" d="M1163.5,121.3l0.3-0.4l-0.4,0.4c0,0,0,0,0.1,0L1163.5,121.3z"/>
	<path class="st1" d="M1161,124.7L1161,124.7C1161.1,124.6,1161,124.6,1161,124.7L1161,124.7z"/>
	<path class="st1" d="M1161.9,123.8l0.2-0.2c0-0.4,0.2-0.8,0.5-1.2l0.1-0.1c0,0-0.1,0-0.1,0l0,0l-0.2,0.4l-0.6,0.6   C1161.7,123.5,1161.8,123.7,1161.9,123.8z"/>
	<path class="st1" d="M1161.5,123.1c0.1-0.3,0.2-0.6,0.3-0.8c-0.2,0-0.3,0-0.4,0.1C1161.4,122.6,1161.4,122.9,1161.5,123.1z"/>
	<path class="st1" d="M1063.7,94.9c-0.1,0-0.1-0.1-0.2-0.1c-0.1,0.1-0.2,0.1-0.3,0.1c-0.1,0-0.1,0-0.1,0.1c-0.5,0.1-0.7,0.4-0.7,0.8   c0,0.4,0.1,0.7,0.3,0.9c0.2,0.2,0.2,0.3,0.2,0.3c0.1,0,0.2-0.1,0.3-0.3c0.1-0.2,0.4-0.6,0.7-1.2l-0.2-0.3   C1063.8,95,1063.7,94.9,1063.7,94.9z"/>
	<path class="st1" d="M1063.9,87.3c-0.1,0-0.2,0-0.2-0.1c0,0.1,0,0.3-0.1,0.5c-0.1,0.2-0.1,0.4-0.1,0.5v0.1l0.4-0.3   c0.1,0,0.1-0.1,0.1-0.2c0,0,0.1-0.1,0.1-0.2l0.2-0.2c-0.1-0.1-0.2-0.2-0.3-0.2C1064,87.4,1064,87.4,1063.9,87.3z"/>
	<path class="st1" d="M1088.8,70.4c-0.6-0.1-1.1-0.1-1.7-0.1c-0.5,0-0.9,0-1.2,0.1c-0.3,0.1-0.5,0.2-0.5,0.5v0.5l4.9-0.8   C1089.9,70.5,1089.4,70.5,1088.8,70.4z"/>
	<path class="st0" d="M653.9,128.5c-0.3,0.1-0.5,0.3-0.7,0.5l-0.2,0.1c0.4-0.1,0.7-0.2,1-0.3c0.3-0.2,0.7-0.3,1.1-0.3   c0-0.1-0.2-0.1-0.4-0.1C654.4,128.4,654.1,128.4,653.9,128.5z"/>
	<path class="st0" d="M656.5,118.5c0.2,0,0.3,0,0.5-0.1c0.2-0.1,0.2-0.2,0.2-0.5c-0.3,0.3-0.5,0.4-0.8,0.3c-0.3,0-0.5,0-0.6,0.2   c0.1,0.1,0.2,0.1,0.3,0.1C656.2,118.5,656.4,118.5,656.5,118.5z"/>
	<path class="st0" d="M681.5,109.2c-0.7,0-1.2,0.1-1.6,0.2c-0.4,0.2-0.8,0.3-1.2,0.5c0.3,0.2,0.6,0.2,0.8,0.2c0.3,0,0.5-0.1,0.9-0.4   C680.7,109.5,681.1,109.3,681.5,109.2z"/>
	<path class="st0" d="M672.5,113.1L672.5,113.1c0.2,0.2,0.2,0.3,0.2,0.3l-0.1,0.2c0.4-0.2,0.6-0.3,0.8-0.4c0.2-0.1,0.4-0.2,0.6-0.4   l-0.5-0.7c-0.1,0-0.2,0.1-0.3,0.2c-0.3,0.5-0.4,0.7-0.3,0.8C673,113.1,672.9,113.1,672.5,113.1z"/>
	<path class="st0" d="M653,121.8l-2.4,0.8v0.2c0,0,0,0.1,0.1,0.1C651.4,122.7,652.2,122.3,653,121.8z"/>
	<path class="st0" d="M659,129.5c0,0.1,0,0.2,0,0.2c0,0.1,0,0.1,0,0.2v0.2c0.3,0,0.6-0.1,1.1-0.2c0.5-0.2,1-0.3,1.5-0.6   c0.5-0.2,1-0.5,1.4-0.7c0.4-0.3,0.6-0.5,0.7-0.7c-0.8,0.4-1.6,0.8-2.3,1.1C660.5,129.2,659.8,129.4,659,129.5z"/>
	<path class="st0" d="M744,69.6c-3.1,0-5.6,0-7.4-0.1c-1.8-0.1-3.1-0.2-4-0.3c-0.9-0.1-1.4-0.2-1.7-0.3c-0.2-0.1-0.3-0.2-0.3-0.2   c0-0.1,0.2-0.2,0.7-0.2c0.5,0,1.1-0.1,2-0.2c-2.8,0-4.6-0.1-5.5-0.3c-0.9-0.2-1.4-0.5-1.4-0.9c0-0.3,0.4-0.5,1.1-0.6   c0.7-0.1,1.4-0.2,2-0.3c-0.9-0.1-1.3-0.3-1.3-0.5c0-0.2,0.1-0.3,0.3-0.4c0.2-0.1,0.9-0.2,2-0.3c1.1-0.1,2.9-0.2,5.3-0.2   c2.4,0,5.8-0.1,10.1-0.2c0-0.1,0.1-0.2,0.1-0.3c-0.6,0-1.2,0-1.8,0c-0.8-1.8-2.2-3.1-4.1-4.1c-1.9-0.9-4.1-1.6-6.5-2   c-2.4-0.4-4.9-0.6-7.5-0.7c-2.6-0.1-5-0.1-7.1-0.1c-1.2,0-2.6,0.1-4.1,0.2c-1.5,0.2-3.1,0.4-4.7,0.6c-1.6,0.3-3.2,0.5-4.7,0.8   c-1.5,0.3-2.9,0.6-4.2,0.8c-1.3,0.3-2.3,0.5-3.2,0.6c-0.9,0.2-1.5,0.3-1.7,0.3c0.1-1.2,0.9-2.4,2.4-3.7c1.5-1.3,3.4-2.6,5.9-3.9   c2.4-1.3,5.2-2.6,8.2-3.8c3.1-1.3,6.2-2.5,9.4-3.7c3.2-1.2,6.3-2.3,9.3-3.3c3-1,5.7-2,8.1-2.8c2.4-0.9,4.3-1.6,5.7-2.2   c1.4-0.6,2.2-1,2.2-1.3c0,0,0-0.1-0.1-0.1c-0.1,0-0.1-0.1-0.1-0.2c0-0.2,0-0.4,0.2-0.7c0.1-0.3,0.2-0.6,0.2-0.8   c0-0.6-0.2-1.2-0.5-1.9c-0.4-0.7-0.9-1.3-1.5-1.8c-0.7-0.6-1.5-1-2.4-1.4c-1-0.4-2.1-0.5-3.3-0.5c-1.1,0-2.8,0.1-5.1,0.4   c-2.3,0.3-4.9,0.7-7.9,1.2c-3,0.6-6.2,1.3-9.7,2.3c-3.5,0.9-6.9,2.1-10.4,3.4c-3.5,1.4-6.9,3-10.2,4.8c-3.3,1.8-6.3,3.9-9,6.2   c-2.7,2.3-4.9,4.9-6.8,7.8c-1.8,2.9-3,6.1-3.5,9.7c-5.8,0-10.4,0-13.6,0.1c-3.3,0.1-4.9,0.3-4.9,0.6c0,0.3,0.2,0.4,0.7,0.5   c-0.3,0.1-0.6,0.2-0.9,0.3c-0.4,0.2-0.5,0.4-0.5,0.7c0,0.4,0.2,0.7,0.6,0.8c0.4,0.2,1.1,0.2,2.3,0.2c-0.4,0.1-0.6,0.2-0.8,0.2   c-0.2,0-0.3,0.1-0.3,0.3c0,0.2,0.5,0.3,1.4,0.4c0.9,0.1,2.1,0.3,3.7,0.4c1.6,0.1,3.4,0.2,5.5,0.3c2.1,0.1,4.4,0.2,6.8,0.2   c0.5,1,1.7,1.7,3.5,2.1c1.8,0.5,4.1,0.7,6.7,0.7c0.7,0,1.5,0,2.4-0.1c0.9,0,1.9-0.1,2.9-0.2c0.9-0.1,2.1-0.3,3.4-0.5   c1.4-0.2,2.9-0.4,4.4-0.6c1.6-0.2,3.2-0.3,4.8-0.5c1.7-0.2,3.3-0.2,4.8-0.2h3.6c1,0,2,0,3,0.1c1,0.1,1.9,0.2,2.6,0.3   c0.8,0.2,1.4,0.4,1.8,0.8c0.5,0.3,0.7,0.8,0.7,1.3c0,1.3-0.5,2.6-1.6,3.9c-1,1.3-2.4,2.6-4,3.9c-1.6,1.3-3.4,2.5-5.4,3.7   c-2,1.2-3.9,2.3-5.8,3.3c-1.9,1-3.6,2-5.2,2.8c-1.6,0.8-2.8,1.5-3.6,2.1c-0.2,0.2-1,0.6-2.4,1.3c-1.4,0.7-3.1,1.6-5.1,2.7   c-2,1-4.1,2.2-6.4,3.4c-2.3,1.2-4.4,2.4-6.4,3.5c-2,1.1-3.8,2.1-5.2,3c-1.5,0.9-2.3,1.5-2.7,1.9l-3,1.3c0,0.3-0.1,0.4-0.1,0.4   c0,0-0.1,0.1-0.2,0.2v0.2c1.9-0.9,3.8-1.7,5.5-2.5c1.8-0.8,3.4-1.6,4.8-2.5c0.7-0.2,1.4-0.6,2.1-1.1c0.7-0.5,1.4-0.8,2.1-0.8h0.2   c0.4-0.5,0.9-0.9,1.5-1.2c4-1.9,7.8-3.8,11.3-5.7c3.5-1.9,7-3.8,10.7-5.7c0.2,0.2,0.2,0.5,0.2,0.9l-0.5,0.2   c-0.1,0.3-0.3,0.4-0.5,0.5c-0.2,0.1-0.4,0.2-0.7,0.3c0.1-0.1,0.2-0.2,0.2-0.2c0-0.1,0-0.2-0.1-0.2c-0.1-0.1-0.1-0.2-0.2-0.3   c-0.3,0.3-0.6,0.5-0.8,0.8c-0.2,0.3-0.6,0.5-1,0.6h-0.1c-0.3,0-0.6,0.1-1,0.4c-0.4,0.3-0.8,0.5-1.3,0.8c-0.5,0.3-0.9,0.6-1.3,0.8   c-0.4,0.3-0.7,0.4-0.8,0.4c-0.2,0-0.3,0-0.3-0.1c-0.7,0.7-1.3,1.2-1.9,1.7c-0.6,0.5-1.2,0.8-1.9,1.1c-0.6,0.3-1.3,0.6-2.1,0.8   c-0.8,0.2-1.6,0.4-2.7,0.6c-1,1-1.9,1.7-2.8,2.1c-0.9,0.4-1.8,0.8-2.6,1.2c-0.6,0.2-1,0.4-1.4,0.8c-0.4,0.4-0.8,0.7-1.4,1.1   c-1.5,0.3-3,0.8-4.6,1.7c-1.6,0.9-3.2,1.8-4.8,2.7c-2.4,1.3-4.7,2.4-7.1,3.5c-2.4,1.1-4.9,2.2-7.6,3.4h-0.4c-0.6,0-1.3,0.1-2.2,0.3   c-0.9,0.2-1.6,0.5-2,0.9c0.2,0.1,0.4,0.1,0.6,0.1c0.2,0,0.4,0,0.6,0c0.2,0,0.3,0,0.5,0c-0.3,0.3-0.8,0.5-1.4,0.8   c-0.6,0.3-1.2,0.5-1.8,0.8c-0.6,0.3-1.1,0.5-1.6,0.6c-0.5,0.2-0.7,0.3-0.7,0.3c0,0.2,0,0.2,0.1,0.2c0.1,0,0.2,0,0.3,0l-0.5,0.6H646   c-0.4,0-1.1,0.2-2,0.6c-0.9,0.4-1.9,0.8-2.8,1.3c-1,0.5-1.8,1-2.6,1.4c-0.8,0.5-1.2,0.8-1.2,0.9l0.1,0.1c0.7,0,1.6-0.3,2.7-0.9   c1.1-0.6,2.4-1.2,3.8-2c0.1,0,0.1,0.1,0.2,0.1c0.3,0,0.6-0.1,0.9-0.4c0.3-0.3,0.6-0.5,1-0.6c0.6-0.1,1.1-0.2,1.7-0.4   c0.6-0.2,1.1-0.5,1.7-0.8h0.5c0.3,0,0.4-0.1,0.5-0.2c0.1-0.1,0.2-0.2,0.3-0.2c0.1,0,0.3,0.1,0.5,0.3c0.4-0.1,0.8-0.3,1.2-0.5   c0.4-0.2,0.7-0.4,1-0.4c0-0.1-0.1-0.1-0.1-0.2c0-0.1-0.1-0.2-0.1-0.4l-0.8,0.3c0.6-0.4,1.2-0.7,1.7-1.1c0.5-0.4,1.2-0.7,2-0.8   c0.8-0.3,1.5-0.6,2.2-1c0.7-0.4,1.4-0.7,2.3-0.9v0.1c0,0,0,0.1,0,0.1c0,0,0,0,0,0.1c0,0-0.1,0.1-0.3,0.2c-0.2,0.1-0.5,0.2-0.7,0.3   c-0.3,0.1-0.5,0.2-0.7,0.3c-0.2,0.1-0.4,0.2-0.4,0.2c0.2,0.2,0.5,0.3,0.8,0.3c0.4,0,0.7-0.1,1.2-0.2c0.4-0.2,0.9-0.3,1.4-0.5   c-0.6,0.4-1.2,0.7-1.8,0.9c-0.6,0.3-1.3,0.5-2,0.6v0.5c0.1,0,0.2,0,0.3-0.1c0.1-0.1,0.2-0.1,0.3-0.1c0.1,0,0.2,0.1,0.2,0.3   l-1.8,0.4l0.2-0.2c0.1-0.1,0.2-0.2,0.2-0.3v-0.1c-0.4,0.2-0.6,0.3-0.7,0.3c-0.1,0.1-0.2,0.1-0.3,0.2c0,0-0.1,0-0.1,0.1   c0,0,0,0.1-0.1,0.1l0.5-0.2l0.1,0.1c0,0.1,0,0.1,0,0.1c0,0,0,0.1,0,0.1c0,0.1-0.1,0.2-0.3,0.3c-0.2,0.1-0.5,0.1-0.8,0.2   c-0.3,0-0.6,0-0.9,0c-0.3,0-0.5,0-0.7,0c0.5,0.4,0.8,0.6,0.8,0.7c0,0.2-0.1,0.4-0.3,0.5c-0.2,0.1-0.4,0.2-0.6,0.3   c1-0.4,2-0.8,3-1.3c1-0.4,2-0.9,3-1.5c1.3-0.6,2.5-1,3.8-1.4c1.2-0.4,2.4-0.9,3.4-1.5c0.2-0.1,0.5-0.1,0.9-0.3   c0.4-0.1,0.8-0.3,1.2-0.4c0.4-0.2,0.8-0.3,1.1-0.5c0.3-0.2,0.6-0.4,0.7-0.6l0.1-0.8c-0.4,0.4-0.7,0.7-1.2,0.8   c-0.4,0.1-0.9,0.2-1.3,0.4l-0.1-0.2c0-0.2,0.2-0.4,0.5-0.6c0.4-0.2,0.8-0.5,1.3-0.7c0.5-0.3,1-0.5,1.5-0.7c0.5-0.2,1-0.4,1.4-0.5   c1.1-0.6,2.1-1.1,3-1.7c0.9-0.6,1.8-1,2.7-1.1l7-3v0.1c-0.6,0.3-1.2,0.6-1.8,1c-0.6,0.4-1.3,0.8-2,1l0.3,0.2   c0.2-0.1,0.4-0.1,0.7-0.3c0.3-0.1,0.5-0.2,0.6-0.2c1.4-0.8,2.6-1.4,3.7-1.9c1-0.5,2.1-1,3.3-1.7c0.2,0,0.3,0,0.4,0.1   c0.1,0,0.2,0.1,0.4,0.1c0.1,0,0.2,0,0.3-0.1v0.1c0,0.2-0.3,0.4-1,0.9c-0.7,0.4-1.5,0.9-2.3,1.3c-0.9,0.5-1.7,0.9-2.6,1.3   c-0.8,0.4-1.4,0.6-1.6,0.6l-4.8,2.7c-0.3,0.1-0.5,0.2-0.8,0.4c-0.3,0.2-0.5,0.4-0.6,0.8l-0.5-0.2l-0.2,0.5c-0.9,0.6-1.7,1-2.5,1.4   c-0.8,0.4-1.5,0.7-2.2,1.1c-0.7,0.3-1.4,0.6-2.1,0.9c-0.7,0.3-1.4,0.7-2.2,1.1c-0.5,0-0.8,0.1-1.1,0.2c-0.3,0.1-0.5,0.4-0.8,0.8   c-1.2,0.4-2.2,0.8-3,1.3c-0.8,0.5-1.7,0.9-2.8,1.4c0,0.1,0,0.1,0.1,0.2v0.1c0,0.1,0,0.1-0.1,0.2l2.8-1.1c0,0.3-0.4,0.6-1.1,1   c-0.7,0.4-1.5,0.9-2.4,1.3c-0.9,0.4-2.1,1-3.5,1.6l1,0.2l1.4-0.7l1.2-0.2l0.5-0.2l-0.5,0.5c-1.5,0.6-2.9,1.2-4.3,1.7   c-1.3,0.6-2.7,1.3-4.2,2.1c-1.1,0.8-2.1,1.4-3.2,1.9c-1.1,0.4-2.3,0.9-3.6,1.4c0.2,0.2,0.5,0.2,0.9,0.2c0.8,0,1.5-0.2,2.2-0.5   c0.7-0.3,1.1-0.6,1.4-0.9c0.5-0.1,1-0.2,1.6-0.4c0.6-0.2,1.1-0.4,1.7-0.6c0.6-0.2,1.1-0.4,1.6-0.6c0.5-0.2,1-0.3,1.5-0.3   c0.3,0,0.6,0.1,0.8,0.2l4.5-1.3c0.1-0.4,0.3-0.5,0.8-0.5h0.2c-0.2,0.1-0.3,0.2-0.4,0.4c-0.1,0.2-0.2,0.2-0.3,0.2h-0.1   c-0.5,0.3-0.9,0.5-1.4,0.6c-0.5,0.2-0.8,0.2-1.1,0.2c-0.3,0.2-0.6,0.3-0.9,0.6c-0.4,0.2-0.8,0.3-1.2,0.3c0.1,0.2,0.1,0.3,0.1,0.5   c0,0.1,0,0.2-0.1,0.2c2-0.6,3.9-1.4,5.8-2.3c1.9-0.9,3.8-1.6,5.7-2c-0.2,0.1-0.3,0.3-0.5,0.5c-0.2,0.2-0.4,0.3-0.7,0.3l-2.8,1   c-0.4,0.4-0.9,0.6-1.6,0.8c-0.6,0.2-1.2,0.3-1.6,0.5l-0.1,0.2c0,0,0,0.1,0.1,0.1h0.2c0.1,0,0.2,0,0.3,0.2l6.1-1.6   c0.4-0.3,0.8-0.4,1.2-0.5c0.5-0.1,0.9-0.2,1.4-0.5v0.1c-0.2,0.1-0.4,0.2-0.7,0.3c-0.3,0.1-0.5,0.2-0.6,0.3c0,0.1,0,0.1,0.1,0.1   c0.7,0,2.1-0.4,4.4-1.2c2.2-0.8,4.9-1.9,8-3.3c3.1-1.4,6.4-2.9,10-4.5c3.6-1.7,7.1-3.3,10.5-5c3.4-1.7,6.6-3.2,9.4-4.7   c2.9-1.5,5.2-2.7,6.8-3.7c3.4-2,6.6-4.1,9.8-6.4c3.1-2.3,5.9-4.8,8.3-7.5c2.1-2.3,3.8-4.8,5.3-7.5c0.1-1.7,0.3-3.3,0.6-4.9   C742.6,74.5,743.2,72,744,69.6z M671.1,112c-1.3,0.5-2.5,1-3.7,1.6c-1.2,0.6-2.3,1.3-3.3,2.1l-0.2-0.2c-0.1-0.1-0.2-0.2-0.2-0.2   c0-0.1,0-0.1,0-0.1c0,0,0,0,0-0.1l-1.4,0.5c1.5-0.7,3-1.4,4.4-2.1c1.4-0.7,2.9-1.3,4.5-1.9L671.1,112z M671.6,110.7   c-0.2,0.2-0.5,0.2-0.9,0.2c0.2-0.1,0.5-0.2,0.8-0.4c0.3-0.2,0.6-0.2,0.8-0.2c0.1,0,0.2,0,0.2,0.1   C672.1,110.5,671.8,110.6,671.6,110.7z M674,109.6c-0.3,0.1-0.5,0.2-0.6,0.3H673c0.7-0.3,1.3-0.7,1.7-1.1   C674.5,109.2,674.2,109.5,674,109.6z M679.2,107.2c-0.5,0.3-0.9,0.5-1.2,0.7l-0.1-0.5c0.3-0.3,0.5-0.4,0.9-0.5   c0.3-0.1,0.7-0.3,1.1-0.5C679.9,106.7,679.7,106.9,679.2,107.2z M681.2,106.2c-0.3,0.2-0.6,0.2-0.8,0.2c-0.2,0-0.3-0.1-0.4-0.2   c0.3,0,0.6-0.1,0.9-0.2c0.3-0.1,0.6-0.2,0.9-0.4C681.7,105.9,681.5,106,681.2,106.2z M687.9,102.9l-4.1,2.3   c0.3-0.4,0.6-0.7,0.9-0.9c0.4-0.2,0.7-0.4,1.1-0.6c0.4-0.2,0.8-0.4,1.2-0.5c0.4-0.2,0.8-0.4,1.1-0.6L687.9,102.9z M665.9,119.4   c0.8-0.4,1.7-1,2.7-1.7c0,0.1,0,0.1,0.1,0.1h0.2h0.1c-0.2,0.3-0.4,0.5-0.6,0.8c-0.3,0.3-0.6,0.6-1,0.9c-0.4,0.3-0.8,0.5-1.2,0.7   c-0.4,0.2-0.8,0.3-1.2,0.4c-0.1-0.1-0.2-0.1-0.3-0.1c-0.2,0-0.3,0.1-0.4,0.2c-0.1,0.1-0.3,0.2-0.5,0.2   C664.3,120.4,665,119.8,665.9,119.4z M669.3,119.6c-0.2,0.4-0.4,0.6-0.7,0.7c-0.3,0.1-0.5,0.2-0.8,0.3c0.3-0.2,0.5-0.4,0.8-0.5   C668.8,119.9,669.1,119.7,669.3,119.6z M669.4,123.1l0.1-0.2l0.3,0.2H669.4z M668.7,123c-0.6,0.2-1.1,0.4-1.7,0.5   c0.5-0.2,0.9-0.3,1.3-0.5c0.4-0.2,0.9-0.5,1.6-0.8C669.7,122.5,669.3,122.8,668.7,123z M670.7,120.9c-0.1,0-0.2,0.1-0.3,0.2   c-0.1,0.1-0.3,0.2-0.6,0.3c-0.2,0.1-0.6,0.3-1.2,0.5c-0.6,0.3-1.2,0.5-1.8,0.8c-0.6,0.3-1.2,0.5-1.8,0.7c-0.6,0.2-1,0.3-1.2,0.3   l-0.1-0.1c1.4-0.7,2.7-1.3,4.1-1.9c1.4-0.6,2.7-1.2,4-1.9c0,0,0,0.1,0.1,0.1c0.1,0,0.1,0.1,0.1,0.1c0,0,0.1,0,0.1,0.2l0.2-0.5   l-0.1,0.1c-0.1,0-0.1,0-0.2-0.1c0.2-0.1,0.5-0.2,0.9-0.3c0.4-0.2,0.8-0.4,1.3-0.6c0.4-0.2,0.8-0.4,1.2-0.6c0.4-0.2,0.7-0.3,0.9-0.3   c-0.1,0.1-0.2,0.1-0.2,0.2c0,0.1-0.1,0.1-0.1,0.2c-0.1,0.1-0.1,0.2-0.1,0.2l0.5,0.3c-0.1,0-0.2,0-0.5,0.2l-0.5,0.2l-0.3-0.1   l-0.1-0.2v0.2c0,0.1,0,0.2,0,0.2c0,0.1,0,0.1,0,0.2c-0.1-0.1-0.2-0.2-0.2-0.3c0-0.1-0.1-0.2-0.2-0.2l-0.9,0.5   c-0.3,0.1-0.5,0.2-0.8,0.3c-0.3,0.1-0.5,0.2-0.6,0.2l-0.3,0.5c0,0-0.1,0-0.1,0.1c0,0-0.1,0.1-0.1,0.2c-0.5,0.1-0.8,0.2-0.9,0.2   C670.9,120.8,670.8,120.8,670.7,120.9z M679.3,118.7c-0.2,0.1-0.4,0.2-0.5,0.3c-0.1,0.1-0.3,0.1-0.4,0.1c-0.1,0-0.2,0-0.3,0   c-0.1,0-0.2,0-0.3,0c-0.3,0-0.5,0.1-0.6,0.2c-0.2,0.1-0.3,0.2-0.5,0.3h0.3c0.1,0,0.1,0.1,0.2,0.2c-0.2,0.2-0.5,0.4-1.1,0.7   c-0.6,0.3-1.1,0.5-1.8,0.8c-0.6,0.3-1.2,0.5-1.8,0.6c-0.6,0.2-1,0.3-1.2,0.3h-0.1c0.3-0.1,0.6-0.3,0.9-0.5c0.3-0.2,0.7-0.4,1.1-0.5   c0,0,0.1,0.1,0.2,0.1c0.3,0,0.7-0.2,1.2-0.5c0.5-0.3,1-0.7,1.6-1.1c0.6-0.4,1.1-0.8,1.6-1.1c0.5-0.3,0.9-0.5,1.3-0.5   c0.1,0,0.2,0,0.2,0c0,0,0.1,0,0.1,0L679.3,118.7z M679,117.6c-0.7,0.4-1.1,0.5-1.4,0.5c-0.1,0-0.2,0-0.2-0.1   c0.1-0.2,0.2-0.4,0.5-0.5c0.3-0.2,0.6-0.3,0.9-0.4c0.3-0.1,0.6-0.2,0.9-0.3c0.3-0.1,0.5-0.1,0.6-0.1   C680.1,116.9,679.6,117.2,679,117.6z"/>
	<path class="st0" d="M649.5,117.9L649.5,117.9C649.5,117.9,649.5,117.9,649.5,117.9z"/>
	<path class="st0" d="M649.4,117.9c-0.3,0.2-0.5,0.3-0.8,0.4c-0.3,0.1-0.5,0.1-0.6,0.1c-0.1,0-0.2,0-0.2,0c0,0-0.1,0-0.1,0   c0.2,0.1,0.4,0.2,0.5,0.2C648.7,118.5,649.1,118.3,649.4,117.9z"/>
	<path class="st0" d="M788.3,71c0.1,0.2,0.2,0.3,0.2,0.3c0,0.1,0.1,0.1,0.2,0.1c0.1,0,0.4-0.1,0.9-0.2c0.5-0.1,0.7-0.3,0.7-0.6   c0-0.1-0.1-0.1-0.3-0.2c-0.2-0.1-0.7-0.3-1.4-0.5c-0.1,0.1-0.2,0.1-0.2,0.2c-0.2,0.2-0.2,0.3-0.2,0.4L788.3,71   C788.3,71,788.3,71,788.3,71z"/>
	<path class="st0" d="M792.9,45.9c0-0.1-0.1-0.1-0.3-0.2c-0.2-0.1-0.7-0.3-1.4-0.5c-0.1,0.1-0.2,0.1-0.2,0.2   c-0.2,0.2-0.2,0.3-0.2,0.4l0.2,0.3c0,0.1,0,0.1,0.1,0.1c0.1,0.2,0.2,0.3,0.2,0.3c0,0.1,0.1,0.1,0.2,0.1c0.1,0,0.4-0.1,0.9-0.2   C792.6,46.3,792.9,46.1,792.9,45.9z"/>
	<path class="st0" d="M794,32.2c0.1,0.2,0.2,0.3,0.2,0.3c0,0.1,0,0.1,0.2,0.1c0.1,0,0.4-0.1,0.9-0.2c0.5-0.1,0.7-0.3,0.7-0.6   c0-0.1-0.1-0.1-0.3-0.2c-0.2-0.1-0.7-0.3-1.4-0.5c-0.1,0.1-0.2,0.1-0.2,0.2c-0.2,0.2-0.2,0.3-0.2,0.4L794,32.2   C793.9,32.2,794,32.2,794,32.2z"/>
	<path class="st0" d="M851.8,64.6l0.3,0C852,64.6,851.9,64.6,851.8,64.6z"/>
	<path class="st0" d="M827.8,69.6h-6.2c-4,0-7.2,0-9.4-0.1c-2.2-0.1-3.9-0.2-5-0.3c-1.1-0.1-1.8-0.2-2-0.3c-0.3-0.1-0.4-0.2-0.4-0.2   c0-0.1,0.2-0.2,0.7-0.2c0.5,0,1.1-0.1,2-0.2c-2.8,0-4.6-0.1-5.5-0.3c-0.9-0.2-1.4-0.5-1.4-0.9c0-0.3,0.4-0.5,1.1-0.6   c0.7-0.1,1.4-0.2,2.1-0.3c-0.9,0-1.4-0.2-1.4-0.5c0-0.1,0.1-0.2,0.2-0.3c0.1-0.1,0.4-0.2,1-0.3c0.6-0.1,1.4-0.2,2.5-0.3   c1.1-0.1,2.7-0.1,4.8-0.2c2.1,0,4.7-0.1,7.8-0.1c3.2,0,7-0.1,11.6-0.1c0.1-0.2,0.2-0.3,0.3-0.5c0.1-0.7,0.1-1.4,0.2-2.1   c0-0.9,0.1-1.8,0.1-2.7c0-3.4-0.4-6.4-1.2-9c-0.8-2.6-1.9-4.9-3.3-6.9c-1.4-2-3.2-3.6-5.1-5c-2-1.3-4.2-2.4-6.6-3.2l-0.2-0.2   c-0.7-0.3-1.6-0.6-2.8-1c-1.2-0.4-2.5-0.8-3.8-1.3c-1.4-0.4-2.7-0.7-4.2-1c-1.4-0.3-2.6-0.4-3.7-0.4c-1.1,0-1.9,0.2-2.4,0.5   c-0.5,0.4-0.8,0.8-1,1.4c-5.1,0.4-10.2,1.3-15.2,2.9c-5,1.6-9.8,3.7-14.2,6.4c-4.5,2.7-8.5,5.9-12.1,9.7c-3.6,3.7-6.5,7.8-8.7,12.3   c0,0.1-0.1,0.2-0.1,0.3c-4.3,0.1-7.7,0.1-10.1,0.2c-2.4,0.1-4.2,0.1-5.3,0.2c-1.1,0.1-1.8,0.2-2,0.3c-0.2,0.1-0.3,0.3-0.3,0.4   c0,0.3,0.4,0.4,1.3,0.5c-0.7,0.1-1.3,0.1-2,0.3c-0.7,0.1-1.1,0.3-1.1,0.6c0,0.4,0.5,0.7,1.4,0.9c0.9,0.2,2.8,0.3,5.5,0.3   c-0.9,0.1-1.5,0.2-2,0.2c-0.5,0-0.7,0.1-0.7,0.2c0,0.1,0.1,0.1,0.3,0.2c0.2,0.1,0.8,0.2,1.7,0.3c0.9,0.1,2.2,0.2,4,0.3   c1.8,0.1,4.3,0.1,7.4,0.1c-0.8,2.4-1.4,4.9-1.9,7.4c-0.3,1.6-0.5,3.2-0.6,4.9c-0.1,1-0.1,2-0.1,3c0,4.8,0.8,9,2.4,12.3   c1.6,3.4,3.8,6.1,6.6,8.2c2.8,2.1,6,3.6,9.7,4.5c3.7,0.9,7.6,1.4,11.7,1.4c6.7,0,13.1-0.9,19.3-2.8c6.2-1.8,11.9-4.5,17.1-8   c5.1-3.5,9.6-7.7,13.2-12.6c1.1-1.4,2-2.9,2.9-4.4c0.2-1.8,0.4-3.6,0.8-5.4C825.7,75.3,826.6,72.4,827.8,69.6z M778.3,51   c4.7-3.8,10.2-6.7,16.5-8.7c-0.7,1-1.1,2.2-1.1,3.7c0,0.4,0,0.8,0.1,1.2c0,0.4,0.2,0.8,0.3,1.2l-1.5-0.5c-0.2,0.1-0.3,0.2-0.4,0.4   c-0.3,0.3-0.4,0.5-0.4,0.6c0,0.2,0.1,0.3,0.2,0.4c0.1,0.1,0.2,0.1,0.2,0.2c0.2,0.5,0.6,0.7,1.2,0.7c0.3,0,0.5,0,0.7-0.2   c0.2-0.1,0.4-0.2,0.6-0.3c0.5,0.7,1.2,1.1,2,1.2V51c0,0.2,0.1,0.3,0.2,0.4c0.1,0.1,0.2,0.1,0.2,0.2c0.2,0.5,0.6,0.7,1.2,0.7   c0.4,0,0.7-0.1,1.1-0.3c0.4-0.2,0.6-0.4,0.6-0.6c0-0.2,0-0.4-0.1-0.5c1.8,0.1,3.3,0.3,4.5,0.9c1.2,0.5,2.1,1.2,2.8,2.2   c0.7,0.9,1.1,2,1.4,3.2c0.3,1.2,0.4,2.6,0.4,4.1c0,0.6,0,1.1,0,1.6c0,0.5-0.1,1-0.1,1.6h-41.6C770,59.3,773.6,54.8,778.3,51z    M808.2,70.3h-1.4c-0.5,0.1-0.9,0.1-1.4,0.1c-0.5,0-0.9,0-1.4,0c-0.6,0-1.1,0-1.6,0c-0.5,0-1.1,0-1.6,0c-1.2,0-2.1,0.1-2.7,0.3   h-0.9c-0.3,0-0.5,0-0.7,0.1c-0.2,0.1-0.4,0.1-0.6,0.1h-0.5c-0.5,0-0.9,0-1.1,0.1h-0.2c-0.3,0.1-0.5,0.1-0.6,0.1s-0.4,0-0.6,0h-0.2   c0.1,0,0.1,0,0.1,0c0,0,0.1,0,0.1,0h0.5c0,0.1-0.1,0.1-0.2,0.1h-0.5c0.2,0.1,0.4,0.1,0.6,0.1h4.5c-0.1,0-0.1,0-0.1,0.1   c0.3,0,0.5,0,0.7,0c0.2,0,0.5,0,0.7,0h5.6c0.3,0.1,0.5,0.1,0.7,0.1c0.2,0,0.5,0,0.7,0h1.5c-0.9,3.5-2.2,6.7-3.9,9.5   c-1.7,2.9-3.9,5.4-6.5,7.4c-2.6,2.1-5.6,3.7-9,4.8c-3.4,1.1-7.2,1.7-11.4,1.7c-2.7,0-5-0.3-6.8-0.9c-1.8-0.6-3.2-1.4-4.3-2.5   c-1.1-1.1-1.8-2.3-2.2-3.9c-0.4-1.5-0.6-3.2-0.6-5.1c0-4.6,0.7-9,2-13.1l43.1-0.2L808.2,70.3z"/>
	<path class="st0" d="M891.1,97.6c-0.1,0.1-0.2,0.1-0.3,0.2c-0.1,0.1-0.2,0.1-0.3,0.1c0.4,0,1-0.1,1.7-0.4c-0.3,0.1-0.6,0.1-0.8,0.1   C891.2,97.6,891.1,97.6,891.1,97.6z"/>
	<path class="st0" d="M900.4,91.5c-0.5,0-0.9,0.1-1.3,0.2c-0.1,0-0.6,0.2-1.6,0.5c-0.9,0.3-2.1,0.7-3.5,1.1   c-1.4,0.4-2.9,0.9-4.5,1.4c-1.6,0.5-3.2,0.9-4.7,1.3c-1.5,0.4-2.9,0.7-4.1,1c-1.2,0.3-2.1,0.4-2.6,0.4c-0.2,0-0.3,0-0.4-0.1   c0.2,0,0.8-0.2,1.9-0.5c1.1-0.4,2.4-0.7,3.8-1.2c1.4-0.4,2.7-0.9,4-1.3c1.3-0.4,2.1-0.7,2.6-0.9h-0.1c0,0,0.1,0,0.2,0   c0.1,0,0.1,0,0.2,0h0.1c3.7-0.9,6.4-1.6,7.9-2c1.5-0.4,2.3-0.7,2.3-0.8c0,0-0.1-0.1-0.2-0.1c-0.4,0-1.1,0.1-2.2,0.3   c-1,0.2-2.2,0.4-3.4,0.6c-1.2,0.2-2.3,0.4-3.4,0.6c-1.1,0.2-1.8,0.3-2.2,0.3c0,0,0.1,0,0.2-0.1c0,0,0.5-0.2,1.5-0.6   c1-0.3,2.1-0.7,3.4-1.1c1.2-0.4,2.4-0.8,3.4-1.2c1-0.4,1.5-0.6,1.5-0.7c0-0.1-0.1-0.1-0.2-0.1c-0.3,0-0.7,0-1.3,0.1   c-0.6,0.1-1.5,0.2-2.7,0.5c0.3-0.1,0.7-0.3,1.2-0.5c0.5-0.2,1.1-0.4,1.7-0.6c0.6-0.2,1.1-0.4,1.5-0.6c0.4-0.2,0.7-0.3,0.7-0.3   l0.5-0.1c0-0.2,0-0.4,0-0.6c-2.3,0.5-4.4,1-6.3,1.5c-2.1,0.6-4.3,1.1-6.4,1.7c-2.1,0.6-4.5,1.2-7,1.8c-2.6,0.6-5.6,1.3-9.1,2.1   h-0.5c1.2-0.3,2.7-0.7,4.6-1.1c1.9-0.5,3.7-0.9,5.5-1.3c1.8-0.4,3.3-0.8,4.7-1.2c1.3-0.4,2-0.6,2-0.6v-0.1c1.2-0.3,2.7-0.6,4.4-1.1   c1.7-0.5,3.4-0.9,5-1.4c1.2-0.3,2.3-0.6,3.2-0.9c0-0.3,0-0.5,0-0.8l-15.4,4.4l-18,3.9l-0.8,0.2l-3.3,0.2c-1.8,0.3-3.5,0.5-4.9,0.5   c-2.1,0-3.8-0.3-5.2-0.8c-1.4-0.6-2.6-1.3-3.4-2.3c-0.9-1-1.5-2.2-1.9-3.6c-0.4-1.4-0.6-2.9-0.6-4.5c0-4.7,0.8-9.2,2.4-13.6   l32.9-0.2c0.9,0,1.8,0,2.7,0c-0.6,0-1.1-0.1-1.5-0.1c-1.1-0.1-1.8-0.2-2-0.3c-0.3-0.1-0.4-0.2-0.4-0.2c0-0.1,0.2-0.2,0.7-0.2   c0.5,0,1.1-0.1,2-0.2c-2.8,0-4.6-0.1-5.5-0.3c-0.9-0.2-1.4-0.5-1.4-0.9c0-0.3,0.4-0.5,1.1-0.6c0.7-0.1,1.4-0.2,2.1-0.3   c-0.9,0-1.4-0.2-1.4-0.5c0-0.1,0.1-0.2,0.2-0.3c0.1-0.1,0.4-0.2,1-0.3c0.3,0,0.6-0.1,0.9-0.1l-28.7-0.4l-0.3,0l-0.2,0   c1.5-2.9,3.3-5.5,5.4-7.9c2.1-2.4,4.4-4.5,7-6.2c2.5-1.7,5.3-3.1,8.2-4.1c2.9-1,5.9-1.4,9-1.4c2.4,0,4.1,0,5.3,0.1   c1.1,0.1,2,0.2,2.5,0.3c0.5,0.1,0.9,0.2,1.2,0.3c0.3,0.1,0.7,0.1,1.3,0.1c0.5,0,0.9,0,1.4,0c0.5,0,1.1-0.2,1.7-0.4   c0.7-0.2,1.5-0.6,2.4-1.1c0.9-0.5,2.1-1.1,3.4-2h2.4c0.4,0,0.6-0.2,0.6-0.6c0-0.6-0.3-1-0.9-1.4c0.7-0.1,1.1-0.2,1.3-0.4   c0.2-0.2,0.3-0.4,0.3-0.6c0-0.3-0.2-0.5-0.7-0.5c-0.6,0-1.3,0.1-2.1,0.4c-0.8,0.3-1.5,0.4-2,0.4c-0.3,0-0.4-0.2-0.4-0.5   c0-0.3,0.1-0.4,0.3-0.6c0.2-0.1,0.4-0.2,0.6-0.3c0.2-0.1,0.4-0.2,0.6-0.3c0.2-0.1,0.3-0.3,0.3-0.5c0-0.5-0.5-0.9-1.5-1.4   c-1-0.5-2.3-0.9-4.1-1.2c-1.7-0.4-3.8-0.6-6.3-0.9c-2.5-0.2-5.1-0.3-8.1-0.3c-4.2,0-8.7,0.7-13.5,2.1c-4.8,1.4-9.5,3.4-14.1,6.1   c-4.6,2.7-8.9,5.9-13,9.7c-3.9,3.7-7.1,7.9-9.8,12.5c-0.1,0.2-0.2,0.3-0.3,0.5c-4.5,0.1-8.4,0.1-11.6,0.1c-3.2,0-5.8,0.1-7.8,0.1   c-2.1,0.1-3.7,0.1-4.8,0.2c-1.1,0.1-2,0.2-2.5,0.3c-0.6,0.1-0.9,0.2-1,0.3c-0.1,0.1-0.2,0.2-0.2,0.3c0,0.3,0.5,0.5,1.4,0.5   c-0.7,0.1-1.4,0.1-2.1,0.3c-0.7,0.1-1.1,0.3-1.1,0.6c0,0.4,0.5,0.7,1.4,0.9c0.9,0.2,2.8,0.3,5.5,0.3c-0.9,0.1-1.5,0.2-2,0.2   c-0.5,0-0.7,0.1-0.7,0.2c0,0.1,0.1,0.1,0.4,0.2c0.3,0.1,0.9,0.2,2,0.3c1.1,0.1,2.8,0.2,5,0.3c2.2,0.1,5.4,0.1,9.4,0.1h6.2   c-1.2,2.8-2.1,5.7-2.7,8.7c-0.4,1.7-0.6,3.5-0.8,5.4c-0.1,1.3-0.2,2.7-0.2,4.1c0,7.2,2.4,12.8,7.3,16.7c4.9,3.9,12.3,5.9,22.4,5.9   c3.6-0.1,6.9-0.3,9.8-0.8c2.9-0.5,5.4-1,7.6-1.6c2.2-0.6,3.9-1.1,5.3-1.6c1.4-0.5,2.3-0.8,3-1c1.2-0.3,2-0.6,2.5-1.2   c0.5-0.5,0.8-0.8,0.8-0.9c1.2-0.4,2.5-0.8,4-1.3c1.5-0.5,3-1,4.4-1.4c1.7-0.5,3.3-1,5-1.5h-0.1c-0.1,0-0.1,0-0.2-0.1   c-0.4,0-1.1,0.1-2.2,0.3c-1.1,0.2-2.2,0.5-3.4,0.8c-1.2,0.3-2.4,0.5-3.5,0.8c-1.1,0.2-1.9,0.3-2.3,0.3c-0.3,0-0.4-0.1-0.4-0.3   c0-0.2,0.1-0.3,0.3-0.3c0.2,0,0.4-0.1,0.7-0.2h0.1c0.2,0,0.4,0,0.8-0.1c0.4-0.1,0.7-0.2,1.1-0.2c0.4-0.1,0.7-0.2,0.9-0.2   c0.3-0.1,0.4-0.1,0.4-0.2c-0.1,0-0.1,0-0.2,0c-0.1,0-0.2,0-0.4,0c-0.4,0-0.8,0-1.3,0.1c-0.5,0.1-0.9,0.1-1.3,0.2   c0.5-0.2,0.8-0.4,1-0.8c0.2-0.4,0.4-0.6,0.6-0.6c0.5-0.1,1.1-0.2,1.8-0.2c0.8,0,1.3-0.2,1.5-0.6l-0.1,0.1v-0.1   c0-0.1,0.4-0.3,1.2-0.7c0.8-0.4,1.7-0.7,2.7-1.2c1-0.4,1.9-0.8,2.7-1.2c0.8-0.4,1.2-0.6,1.2-0.8c0-0.1,0-0.1,0-0.2   c0-0.1,0-0.1,0-0.2c0-0.4,0.2-0.6,0.5-0.8c0.4-0.2,0.7-0.3,1.1-0.3c0.4-0.1,0.8-0.1,1.1-0.2c0.1,0,0.2,0,0.3-0.1   c0-0.2-0.1-0.4-0.1-0.6C900.7,91.5,900.5,91.5,900.4,91.5z M874.2,96.6c-1.7,0.4-2.7,0.5-3,0.5h-0.1c0,0,0.5-0.3,1.6-0.6   c1.1-0.4,2.3-0.7,3.8-1.2c1.5-0.4,3-0.9,4.5-1.3c1.6-0.4,2.9-0.8,3.9-1l-2.7,1.7C878.6,95.6,875.9,96.2,874.2,96.6z M881.2,101.4   c-0.1-0.1-0.1-0.2-0.2-0.3c-0.1-0.1-0.1-0.2-0.1-0.3l1.7-0.5C882.6,100.8,882.2,101.2,881.2,101.4z M889.9,97.6   C890,97.6,890,97.7,889.9,97.6L889.9,97.6z"/>
	<path class="st0" d="M891.3,98.7c-0.4,0.1-0.8,0.2-1.1,0.3c-0.4,0.1-0.7,0.2-1,0.3c-0.3,0.1-0.4,0.2-0.4,0.2c0,0.1,0.1,0.1,0.2,0.1   c0.3,0,0.7,0,1.1-0.1c0.4-0.1,0.8-0.2,1.2-0.3c0.4-0.1,0.7-0.2,0.9-0.3c0.3-0.1,0.4-0.1,0.4-0.2c0-0.2-0.2-0.2-0.5-0.2   C892,98.5,891.7,98.6,891.3,98.7z"/>
	<path class="st0" d="M894.5,96.9L894.5,96.9c-0.2-0.1-0.5,0-0.9,0.2c-0.4,0.2-0.8,0.3-1.3,0.5c0.5-0.1,1-0.2,1.5-0.3   C894.2,97.1,894.5,97,894.5,96.9z"/>
	<path class="st0" d="M967.7,98.7c-0.4,0.1-0.8,0.2-1.1,0.3c-0.4,0.1-0.7,0.2-1,0.3c-0.3,0.1-0.4,0.2-0.4,0.2c0,0.1,0.1,0.1,0.2,0.1   c0.3,0,0.7,0,1.1-0.1c0.4-0.1,0.8-0.2,1.2-0.3c0.4-0.1,0.7-0.2,0.9-0.3c0.3-0.1,0.4-0.1,0.4-0.2c0-0.2-0.2-0.2-0.5-0.2   C968.3,98.5,968.1,98.6,967.7,98.7z"/>
	<path class="st0" d="M970.8,96.9L970.8,96.9c-0.2-0.1-0.5,0-0.9,0.2c-0.4,0.2-0.8,0.3-1.3,0.5c0.5-0.1,1-0.2,1.5-0.3   C970.6,97.1,970.8,97,970.8,96.9z"/>
	<path class="st0" d="M974,92.1c0,0-0.1,0-0.1,0c-0.9,0.3-2.1,0.7-3.5,1.1c-1.4,0.4-2.9,0.9-4.5,1.4c-1.6,0.5-3.2,0.9-4.7,1.3   c-1.5,0.4-2.9,0.7-4.1,1c-1.2,0.3-2.1,0.4-2.6,0.4c-0.2,0-0.3,0-0.4-0.1c0.2,0,0.8-0.2,1.9-0.5c1.1-0.4,2.4-0.7,3.8-1.2   c1.4-0.4,2.7-0.9,4-1.3c1.3-0.4,2.1-0.7,2.6-0.9h-0.1c0,0,0.1,0,0.2,0c0.1,0,0.1,0,0.2,0h0.1c3.4-0.8,5.8-1.4,7.4-1.9   c0-0.2,0.1-0.5,0.2-0.7c-1,0.2-2,0.3-3.2,0.5c-1.2,0.2-2.3,0.4-3.4,0.6c-1.1,0.2-1.8,0.3-2.2,0.3c0.1,0,0.1,0,0.2-0.1   c0,0,0.5-0.2,1.5-0.6c1-0.3,2.1-0.7,3.4-1.1c1.2-0.4,2.4-0.8,3.4-1.2c0.4-0.2,0.8-0.3,1-0.4c0-0.1,0.1-0.2,0.1-0.4   c-0.3,0-0.6,0-1.2,0.1c-0.6,0.1-1.5,0.2-2.7,0.5c0.3-0.1,0.7-0.3,1.2-0.5c0.5-0.2,1.1-0.4,1.7-0.6c0.5-0.2,1-0.4,1.4-0.5   c0.1-0.3,0.2-0.5,0.4-0.8c-1.9,0.4-3.7,0.9-5.3,1.3c-2.1,0.6-4.3,1.1-6.4,1.7c-2.1,0.6-4.5,1.2-7,1.8c-2.6,0.6-5.6,1.3-9.1,2.1   h-0.5c1.2-0.3,2.7-0.7,4.6-1.1c1.9-0.5,3.7-0.9,5.5-1.3c1.8-0.4,3.3-0.8,4.7-1.2c1.3-0.4,2-0.6,2-0.6v-0.1c1.2-0.3,2.7-0.6,4.4-1.1   c1.7-0.5,3.4-0.9,5-1.4c0.9-0.2,1.7-0.5,2.5-0.7c0.1-0.3,0.3-0.6,0.4-0.9l-15,4.3l-18,3.9l-0.8,0.2l-3.3,0.2   c-1.8,0.3-3.5,0.5-4.9,0.5c-2.1,0-3.8-0.3-5.2-0.8c-1.4-0.6-2.6-1.3-3.4-2.3c-0.9-1-1.5-2.2-1.9-3.6c-0.4-1.4-0.6-2.9-0.6-4.5   c0-4.7,0.8-9.2,2.4-13.6l32.9-0.2c1,0,1.9,0,2.9,0c-0.5,0-1,0-1.4-0.1c-1.3-0.1-2-0.2-2.3-0.3c-0.3-0.1-0.4-0.2-0.4-0.3   c0-0.1,0.2-0.2,0.7-0.2c0.5,0,1.1-0.1,2-0.2c-2.8,0-4.6-0.1-5.5-0.3c-0.9-0.2-1.4-0.5-1.4-0.9c0-0.3,0.4-0.5,1.1-0.6   c0.7-0.1,1.4-0.2,2-0.3c-0.9-0.1-1.3-0.3-1.3-0.5c0-0.1,0.1-0.2,0.2-0.3c0.1-0.1,0.5-0.2,1.2-0.3c0.3,0,0.6-0.1,1.1-0.1L928,64.6   c1.5-2.9,3.3-5.5,5.4-7.9c2.1-2.4,4.4-4.5,7-6.2c2.5-1.7,5.3-3.1,8.2-4.1c2.9-1,5.9-1.4,9-1.4c2.4,0,4.1,0,5.3,0.1   c1.1,0.1,2,0.2,2.5,0.3c0.5,0.1,0.9,0.2,1.2,0.3c0.3,0.1,0.7,0.1,1.3,0.1c0.5,0,0.9,0,1.4,0c0.5,0,1.1-0.2,1.7-0.4   c0.7-0.2,1.5-0.6,2.4-1.1c0.9-0.5,2.1-1.1,3.4-2h2.4c0.4,0,0.6-0.2,0.6-0.6c0-0.6-0.3-1-0.9-1.4c0.7-0.1,1.1-0.2,1.3-0.4   c0.2-0.2,0.3-0.4,0.3-0.6c0-0.3-0.2-0.5-0.7-0.5c-0.6,0-1.3,0.1-2.1,0.4c-0.8,0.3-1.5,0.4-2,0.4c-0.3,0-0.4-0.2-0.4-0.5   c0-0.3,0.1-0.4,0.3-0.6c0.2-0.1,0.4-0.2,0.6-0.3c0.2-0.1,0.4-0.2,0.6-0.3c0.2-0.1,0.3-0.3,0.3-0.5c0-0.5-0.5-0.9-1.5-1.4   c-1-0.5-2.3-0.9-4.1-1.2c-1.7-0.4-3.8-0.6-6.3-0.9c-2.5-0.2-5.1-0.3-8.1-0.3c-4.2,0-8.7,0.7-13.5,2.1c-4.8,1.4-9.5,3.4-14.1,6.1   c-4.6,2.7-8.9,5.9-13,9.7c-4,3.8-7.4,8.1-10.1,13c-4.5,0.1-8.4,0.1-11.6,0.1c-3.2,0-5.8,0.1-7.8,0.1c-2.1,0.1-3.7,0.1-4.8,0.2   c-0.6,0-1.1,0.1-1.6,0.1c-0.4,0-0.7,0.1-0.9,0.1c-0.6,0.1-0.9,0.2-1,0.3c-0.1,0.1-0.2,0.2-0.2,0.3c0,0.3,0.5,0.5,1.4,0.5   c-0.7,0.1-1.4,0.1-2.1,0.3c-0.7,0.1-1.1,0.3-1.1,0.6c0,0.4,0.5,0.7,1.4,0.9c0.9,0.2,2.8,0.3,5.5,0.3c-0.9,0.1-1.5,0.2-2,0.2   c-0.5,0-0.7,0.1-0.7,0.2c0,0.1,0.1,0.1,0.4,0.2c0.3,0.1,0.9,0.2,2,0.3c0.4,0,0.9,0.1,1.5,0.1c0.9,0.1,2.1,0.1,3.5,0.2   c2.2,0.1,5.4,0.1,9.4,0.1h6.2c-1.2,2.8-2.1,5.7-2.7,8.7c-0.5,2.2-0.7,4.5-0.9,6.8c0,0.3,0,0.5,0,0.8c0,0.2,0,0.3,0,0.5   c0,0.2,0,0.4,0,0.6c0,0.3,0,0.5,0,0.8c0,1.3,0.1,2.6,0.2,3.7c0,0.2,0.1,0.4,0.1,0.6c0.8,5.2,3.1,9.3,7,12.4   c4.9,3.9,12.3,5.9,22.4,5.9c3.6-0.1,6.9-0.3,9.8-0.8c2.9-0.5,5.4-1,7.6-1.6c2.2-0.6,3.9-1.1,5.3-1.6c1.4-0.5,2.3-0.8,3-1   c1.2-0.3,2-0.6,2.5-1.2c0.5-0.5,0.8-0.8,0.8-0.9c1.2-0.4,2.5-0.8,4-1.3c1.5-0.5,3-1,4.4-1.4c1.7-0.5,3.3-1,5-1.5h-0.1   c-0.1,0-0.1,0-0.2-0.1c-0.4,0-1.1,0.1-2.2,0.3c-1.1,0.2-2.2,0.5-3.4,0.8c-1.2,0.3-2.4,0.5-3.5,0.8c-1.1,0.2-1.9,0.3-2.3,0.3   c-0.3,0-0.4-0.1-0.4-0.3c0-0.2,0.1-0.3,0.3-0.3c0.2,0,0.4-0.1,0.7-0.2h0.1c0.2,0,0.4,0,0.8-0.1c0.4-0.1,0.7-0.2,1.1-0.2   c0.4-0.1,0.7-0.2,0.9-0.2c0.3-0.1,0.4-0.1,0.4-0.2c-0.1,0-0.1,0-0.2,0c-0.1,0-0.2,0-0.4,0c-0.4,0-0.8,0-1.3,0.1   c-0.5,0.1-0.9,0.1-1.3,0.2c0.5-0.2,0.8-0.4,1-0.8c0.2-0.4,0.4-0.6,0.6-0.6c0.5-0.1,1.1-0.2,1.8-0.2c0.8,0,1.3-0.2,1.5-0.6l-0.1,0.1   v-0.1c0-0.1,0.4-0.3,1.2-0.7c0.8-0.4,1.7-0.7,2.7-1.2c1-0.4,1.9-0.8,2.7-1.2c0.8-0.4,1.2-0.6,1.2-0.8c0-0.1,0-0.1,0-0.2   c0-0.1,0-0.1,0-0.2c0-0.1,0-0.2,0-0.2c-0.1-0.3-0.2-0.6-0.2-0.8C974,92.3,974,92.2,974,92.1z M950.6,96.6c-1.7,0.4-2.7,0.5-3,0.5   h-0.1c0,0,0.5-0.3,1.6-0.6c1.1-0.4,2.3-0.7,3.8-1.2c1.5-0.4,3-0.9,4.5-1.3c1.6-0.4,2.9-0.8,3.9-1l-2.7,1.7   C954.9,95.6,952.3,96.2,950.6,96.6z M957.6,101.4c-0.1-0.1-0.1-0.2-0.2-0.3c-0.1-0.1-0.1-0.2-0.1-0.3l1.7-0.5   C959,100.8,958.5,101.2,957.6,101.4z M966.3,97.6C966.3,97.6,966.3,97.7,966.3,97.6L966.3,97.6z"/>
	<path class="st0" d="M967.4,97.6c-0.1,0.1-0.2,0.1-0.3,0.2c-0.1,0.1-0.2,0.1-0.3,0.1c0.4,0,1-0.1,1.7-0.4c-0.3,0.1-0.6,0.1-0.8,0.1   S967.5,97.6,967.4,97.6z"/>
	<path class="st0" d="M1055.6,73.2c-0.4-0.1-1-0.1-1.6-0.2c-0.7-0.1-1.4-0.1-2.2-0.2c-0.8,0-1.6-0.1-2.4-0.2   c-0.1-0.2-0.2-0.4-0.3-0.5c0.7,0,1.4-0.1,2.1-0.1c0.7,0,1.4,0,1.9-0.1c0.6,0,1,0,1.4-0.1c0.4,0,0.5-0.1,0.5-0.1   c0-0.1-0.3-0.1-0.9-0.1c-0.6,0-1.6-0.1-3-0.1c0.4,0,0.8,0,1.4-0.2c0.6-0.1,1.1-0.2,1.7-0.3c0.5-0.1,1-0.2,1.4-0.2   c0.4-0.1,0.7-0.1,0.7-0.1h0.4c0.1-0.2,0.1-0.4,0.2-0.6c-0.2,0-0.5,0-0.7,0c-0.8,0-1.7,0-2.5,0c-0.8,0-1.5,0-1.9,0   c0.1-0.1,0.2-0.2,0.2-0.3c0-0.1,0.1-0.2,0.1-0.2h-3.8c-3.9,0-7-0.1-9.3-0.4c-2.3-0.3-3.4-0.4-3.4-0.5c0-0.1,0.4-0.2,1.1-0.4   c-1.2,0-1.9-0.1-2.3-0.2c-0.4-0.1-0.6-0.4-0.6-0.7c0-0.3,0.2-0.4,0.5-0.6c0.4-0.1,0.7-0.2,0.9-0.3c-0.5-0.1-0.7-0.3-0.7-0.5   c0-0.1,0.1-0.2,0.2-0.3c0.1-0.1,0.4-0.3,0.8-0.4c0.5-0.1,1.2-0.2,2.2-0.3c1-0.1,2.4-0.2,4.2-0.2c1.8,0,4.1-0.1,6.8-0.2   c2.7,0,6.1-0.1,10.1-0.1c0.1-0.3,0.2-0.5,0.3-0.8l-8.5-0.4c0.5-0.2,1.3-0.3,2.4-0.3c1.2-0.1,2.3-0.1,3.5-0.2c1.1,0,2,0,2.9-0.1   c0-0.1,0.1-0.3,0.1-0.4c-0.7-0.1-1.6-0.1-2.7-0.2c-1.2,0-2.6-0.1-4.1-0.2c-1.5-0.1-3-0.1-4.4-0.2c-1.4,0-2.8-0.1-3.9-0.1   c-1.2,0-2.1,0-2.6,0c-0.2,0-0.5,0-1,0c-0.5,0-1.2,0-2.2,0c-1,0-2.2,0-3.7,0.1c-1.5,0.1-3.4,0.1-5.6,0.2c-1.8-0.1-3.8-0.2-5.9-0.2   c-2.2,0-4.4,0-6.5,0l-0.9-0.1c-0.3,0-0.6,0-0.9,0c-0.3,0-0.6,0-0.8,0c-1.2,0-2.2,0-3.1,0c-0.9,0-1.7,0-2.4,0   c0.2-0.8,0.4-1.7,0.8-2.8c0.4-1.1,0.9-2.3,1.4-3.4c0.5-1.2,1.1-2.3,1.7-3.3c0.6-1,1.1-1.8,1.6-2.3c5.3-0.6,9.9-1,13.9-1.4   c4-0.4,7.7-0.8,10.9-1.2c3.2-0.4,6.1-0.8,8.7-1.3c2.6-0.5,5-1.1,7.4-1.9c2.3-0.8,4.7-1.7,7-2.8c1.9-0.9,3.9-2,6-3.3   c0.1-0.2,0.1-0.4,0.2-0.5c0.1-0.3,0.3-0.5,0.6-0.5c0.3,0,0.6,0.1,1,0.2c0.2,0,0.4,0,0.7,0.1c0.5,0.1,0.8,0.1,1.1,0.1   c0.3,0,0.5-0.1,0.5-0.2c0-0.2,0-0.4-0.1-0.7c-0.1-0.3-0.2-0.6-0.2-0.9c-0.1-0.3-0.2-0.6-0.2-0.8c-0.1-0.3-0.1-0.4-0.1-0.5l0.8-0.2   c0.4,0,0.8,0.1,1.2,0.3c0.4,0.2,0.7,0.3,0.8,0.3c0.1,0,0.2-0.1,0.2-0.2c0-0.3-0.2-0.5-0.5-0.6c-0.3-0.1-0.7-0.2-1.1-0.2   c-0.4-0.1-0.9-0.1-1.3,0c-0.5,0-0.9,0-1.2,0c-0.2,0-0.4,0-0.6,0c-0.2,0-0.4,0-0.6,0c0.1,0,0.2,0,0.2-0.1h-0.3c-0.5,0-1.7,0-3.5,0.1   c-1.8,0.1-4,0.1-6.5,0.2c-2.5,0.1-5.3,0.2-8.2,0.2c-2.9,0.1-5.8,0.2-8.5,0.2c-2.8,0.1-5.3,0.1-7.6,0.2c-2.3,0.1-4.1,0.1-5.3,0.1   c-0.1,0-0.7,0-1.7,0.1c-1,0.1-2.3,0.2-3.8,0.3c-1.5,0.1-3.1,0.2-4.8,0.4c-1.7,0.2-3.3,0.3-4.8,0.4c-1.5,0.1-2.8,0.2-3.8,0.3   c-1,0.1-1.6,0.2-1.7,0.2c-0.6,0.3-1.1,0.4-1.7,0.4c-0.4,0-0.8,0-1.1-0.1c-0.3-0.1-0.6-0.1-0.8-0.1c-0.4,0-0.8,0.2-1.2,0.5   c-0.4,0.3-0.9,0.9-1.5,1.7c-0.1,0.2-0.4,0.6-0.9,1.4c-0.5,0.8-1.1,1.8-1.9,3c-0.7,1.2-1.6,2.5-2.5,4c-0.9,1.5-1.8,3-2.7,4.5   c-0.9,1.5-1.7,2.9-2.5,4.3c-0.8,1.4-1.5,2.6-2,3.7l-2.7,5.3c-5.3,0-9.7,0-13.4,0.1c-3.7,0.1-6.7,0.1-9.1,0.2   c-2.4,0.1-4.3,0.1-5.6,0.2c-0.8,0-1.4,0.1-1.9,0.1c-0.4,0-0.8,0.1-1.1,0.1c-0.7,0.1-1,0.2-1.2,0.3c-0.1,0.1-0.2,0.2-0.2,0.3   c0,0.3,0.4,0.4,1.3,0.5c-0.6,0.1-1.3,0.1-2,0.3c-0.7,0.1-1.1,0.3-1.1,0.6c0,0.4,0.5,0.7,1.4,0.9c0.9,0.2,2.8,0.3,5.5,0.3   c-0.9,0.1-1.5,0.2-2,0.2c-0.5,0-0.7,0.1-0.7,0.2c0,0.1,0.1,0.2,0.4,0.3c0.3,0.1,1,0.2,2.3,0.3c0.4,0,0.9,0,1.4,0.1   c1.1,0.1,2.6,0.1,4.4,0.2c2.6,0.1,6.2,0.1,10.8,0.1c-0.1,0.3-0.2,0.5-0.2,0.8c0,0.3-0.1,0.5-0.1,0.8c0,0.3,0,0.6,0,0.9   c0,1,0.3,1.9,0.8,3c0.5,1,1.6,1.8,3.4,2.3c-0.9,1.7-1.8,3.3-2.5,4.8c-0.5,1.1-1,2.1-1.5,3c-0.1,0.3-0.3,0.6-0.4,0.9   c-0.1,0.1-0.1,0.3-0.2,0.4c0,0,0,0.1-0.1,0.1c-0.1,0.3-0.2,0.5-0.4,0.8c-0.2,0.4-0.3,0.7-0.4,1c-0.1,0.1-0.1,0.3-0.1,0.4   c-0.2,0.4-0.3,0.8-0.4,1.1c-0.1,0.3-0.2,0.5-0.2,0.8c-0.1,0.3-0.1,0.5-0.2,0.7c0,0.2-0.1,0.4-0.1,0.6c0,0.1,0,0.2,0,0.3   c0,0.2,0.1,0.5,0.2,0.8c0.1,0.5,0.4,1.1,0.7,1.8c0.5,1.2,1.2,2.6,2.1,4.2c0.9,1.5,1.8,3.1,2.9,4.8c1.1,1.7,2.1,3.2,3.3,4.6   c1.1,1.4,2.2,2.5,3.2,3.4c1,0.9,2,1.3,2.8,1.3c0.4,0,0.8-0.2,1.2-0.5c0.9-0.4,1.9-0.7,3-0.9c1.2-0.2,2.3-0.5,3.6-0.8   c1-0.3,2.3-0.6,3.8-1.1c1.5-0.5,3.2-1,5-1.5c1.8-0.6,3.6-1.1,5.5-1.7c1.9-0.6,3.6-1.1,5.2-1.6c1.6-0.5,3-0.8,4.1-1.1   c1.2-0.3,1.9-0.5,2.3-0.5c1.2,0,2-0.2,2.7-0.6c0.6-0.4,0.9-0.6,1-0.7c1.2-0.1,2.5-0.2,4.1-0.3c1.6-0.1,3.1-0.2,4.5-0.3   c1.7-0.2,3.4-0.3,5.1-0.4c0-0.1-0.3-0.2-0.9-0.2c-0.6,0-1.4-0.1-2.2-0.1c-0.9,0-1.8,0-2.9,0c-1,0-2,0-2.9,0c-0.9,0-1.6-0.1-2.2-0.1   c-0.6,0-0.9-0.1-0.9-0.2c0-0.3,0.1-0.4,0.3-0.4c0.2,0,0.5,0,0.7,0c0,0.1,0.2,0.1,0.4,0.1c0.2,0,0.5,0,0.8,0c0.5,0,0.9,0,1.4,0   c0.5,0,0.7-0.1,0.7-0.2c-0.1-0.1-0.3-0.1-0.6-0.2c-0.4-0.1-0.8-0.1-1.2-0.2c-0.3,0-0.7-0.1-1.2-0.2c0.5,0,0.9-0.2,1.2-0.5   c0.3-0.3,0.5-0.5,0.6-0.5c0.3,0,0.7,0,1.1,0.1c0.4,0.1,0.8,0.1,1.2,0.1c0.5,0,0.9-0.1,1.1-0.3c-0.1,0-0.1-0.1-0.1-0.2v-0.2v-0.3   v-0.1c0.1,0,0.2,0.2,0.4,0.5c0.2,0.3,0.4,0.5,0.6,0.5c0.4,0,0.8,0,1.4,0.1c0.6,0.1,1.2,0.1,1.8,0.1c0.2-0.1,0.2-0.1,0.2-0.2   c0-0.1-0.2-0.2-0.7-0.2c-0.5,0-0.9-0.1-1.5-0.2c-0.5,0-1-0.1-1.4-0.2c-0.4-0.1-0.6-0.2-0.6-0.4c0-0.1,0.4-0.1,1.3-0.1   c0.8,0,1.7,0,2.7,0c1,0,1.9,0,2.7,0c0.8,0,1.2-0.1,1.2-0.3c0-0.4,0.1-0.7,0.4-0.8c0.3-0.1,0.6-0.2,1-0.2c0.3,0,0.5,0,0.8,0   c0.3,0,0.6,0,0.8,0c0.4,0,0.6-0.1,0.6-0.3c0-0.2-0.2-0.3-0.7-0.4c-0.5-0.1-0.9-0.1-1.2-0.1c-0.2,0-0.7,0-1.8,0.1   c-1,0.1-2.3,0.1-3.8,0.2c-1.5,0.1-3.2,0.1-4.9,0.2c-1.8,0.1-3.4,0.1-5,0.1c-1.6,0-2.9,0-4-0.1c-1.1,0-1.7-0.2-1.9-0.4h0.2   c0.5,0,1.4-0.1,2.8-0.2c1.4-0.1,2.9-0.3,4.4-0.4c1.5-0.2,2.8-0.3,4-0.4c1.1-0.1,1.7-0.2,1.6-0.2c-1.1,0-2.6,0-4.6-0.1   c-2,0-4.3-0.1-6.8-0.2c-2.5-0.1-5.2-0.1-8-0.2c-2.8-0.1-5.5-0.1-8-0.2c-2.6-0.1-4.9-0.1-7-0.2c-2.1,0-3.7-0.1-4.9-0.1   c-0.7,0-1.4,0-2.1,0c-0.7,0-1.3,0-1.9,0h-0.5c0,0,0.1-0.2,0.1-0.5v-0.5c0.5-0.9,1-1.8,1.7-2.8c0.7-1,1.4-2,2.1-3.1   c0.7-1.1,1.5-2.4,2.2-3.8c0.8-1.4,1.5-2.9,2.1-4.7c0.7,0,1.8-0.1,3.5-0.2c1.7-0.1,3.7-0.2,6.1-0.4c2.3-0.2,4.9-0.3,7.7-0.5   c2.8-0.2,5.5-0.4,8.3-0.6c2.8-0.2,5.5-0.4,8.1-0.6c2.6-0.2,4.9-0.4,6.9-0.5c2-0.2,3.5-0.3,4.7-0.4c1.2-0.1,1.7-0.2,1.7-0.2   c0.5-0.2,1-0.4,1.4-0.5c0.5-0.1,0.7-0.4,0.8-0.7c2.5,0,4.2-0.1,5.2-0.2c0.5,0,0.9-0.1,1.2-0.1c0-0.1,0-0.2,0.1-0.2   C1055.9,73.2,1055.8,73.2,1055.6,73.2z M1044.9,62.4c0.6,0,1.1,0,1.6,0c0.5,0,0.9,0.1,1.3,0.2c0.4,0.1,0.6,0.3,0.7,0.6l-4.5-0.2   c-0.1-0.2-0.3-0.4-0.7-0.8C1043.8,62.4,1044.3,62.5,1044.9,62.4z M1034.6,62.4c0.1,0,0.1,0,0.2,0l6,0.2c0.4,0,0.6,0.1,0.8,0.4   l-6.6-0.3c-0.2,0-0.4-0.1-0.7-0.2C1034.4,62.5,1034.5,62.5,1034.6,62.4z M1029.3,99.5c-0.1,0-0.1,0-0.2,0   C1029.1,99.5,1029.2,99.5,1029.3,99.5z M1027,99.7c0,0.3-0.2,0.4-0.5,0.5c-0.3,0.1-0.7,0.1-1.1,0.1c-0.1-0.2-0.2-0.4-0.2-0.5H1027z   "/>
	<path class="st0" d="M1081.8,64.9c0.3,0,0.6,0,0.8,0.1c0.4,0,0.8,0,1.3,0c0.6-0.2,1.3-0.4,1.9-0.6h-7.9c0,0.1-0.1,0.3-0.1,0.4   C1079.6,64.8,1080.9,64.9,1081.8,64.9z"/>
	<path class="st0" d="M1052.9,94.2c-0.1,0-0.1,0-0.2,0c-0.1,0.3-0.1,0.5-0.2,0.8c0.1,0,0.2,0,0.2,0   C1052.9,94.7,1052.9,94.4,1052.9,94.2z"/>
	<path class="st0" d="M1035.6,99.8c-0.6,0-1.1,0-1.7,0.1c-0.6,0.1-0.8,0.1-0.8,0.2c0,0.1,0.3,0.2,0.8,0.2c0.6,0,1.1,0,1.7,0   c0.6,0,0.9,0,1.1,0c0.2,0,0.3-0.1,0.3-0.2c0-0.1-0.1-0.2-0.3-0.2C1036.5,99.9,1036.1,99.8,1035.6,99.8z"/>
	<path class="st0" d="M1082.3,32.6c0.1,0.2,0.2,0.3,0.2,0.3c0,0.1,0,0.1,0.2,0.1c0.1,0,0.4-0.1,0.9-0.2c0.5-0.1,0.7-0.3,0.7-0.6   c0,0-0.1-0.1-0.3-0.2c-0.2-0.1-0.7-0.3-1.4-0.5c-0.1,0.1-0.2,0.1-0.2,0.2c-0.2,0.2-0.2,0.3-0.2,0.4L1082.3,32.6   C1082.2,32.6,1082.3,32.6,1082.3,32.6z"/>
	<path class="st0" d="M1075.9,37.9c0.1,0.2,0.2,0.3,0.2,0.3s0,0.1,0.2,0.1c0.1,0,0.4-0.1,0.9-0.2c0.5-0.1,0.7-0.3,0.7-0.6   c0,0-0.1-0.1-0.3-0.2c-0.2-0.1-0.7-0.3-1.4-0.5c-0.1,0.1-0.2,0.1-0.2,0.2c-0.2,0.2-0.2,0.3-0.2,0.4L1075.9,37.9   C1075.8,37.9,1075.8,37.9,1075.9,37.9z"/>
	<path class="st0" d="M1158.5,121.3c0-0.3,0-0.5,0-0.7c0-0.2,0-0.4,0.1-0.6c-0.5,0.5-1.1,1-1.7,1.6c-0.7,0.5-1.2,0.8-1.5,0.8   c-0.2,0-0.2-0.1-0.2-0.3c0-0.4,0.4-1.2,1.2-2.6c0.2-0.3,0.4-0.7,0.7-1.1c-2.2-1.2-4.5-2.3-6.8-3.3c-3.6-1.6-7.2-3.1-10.8-4.7   c-3.6-1.5-7.1-3.1-10.6-4.6c-3.5-1.6-6.9-3.3-10.2-5.2c-5.9-3.3-10.9-6.4-14.8-9.2c-4-2.8-7.2-5.4-9.7-7.7   c-2.5-2.3-4.4-4.4-5.6-6.1c-1.3-1.7-2.1-3.2-2.6-4.4c1.8-0.6,3.6-1.1,5.5-1.5c1.8-0.5,3.7-1.1,5.6-1.9c2,0,3.6,0,4.7,0   c1.1,0,2,0.1,2.7,0.1c0.7,0,1.2,0,1.7,0c0.5,0,1.1,0,2,0c7.3,0,13.6,0,19.1-0.1c5.4,0,10.1-0.1,13.9-0.2c3.8-0.1,7-0.2,9.5-0.3   c2.5-0.1,4.4-0.2,5.8-0.3c1.4-0.1,2.4-0.2,2.9-0.3c0.5-0.1,0.8-0.2,0.8-0.3c0-0.2-0.2-0.3-0.7-0.4c-0.5-0.1-1-0.2-1.6-0.2   c-0.6-0.1-1.1-0.1-1.6-0.1c-0.5,0-0.8,0-0.8,0c-0.7,0-1.4,0-2,0c-0.7,0-1-0.1-1.1-0.3l5.6-0.2c0.8,0,1.1-0.1,1.1-0.2   c0,0-0.7-0.1-2.2-0.2c-1.5-0.1-3.4-0.2-5.9-0.2c-2.4-0.1-5.2-0.1-8.2-0.2c-3.1,0-6.1-0.1-9.3-0.2c-3.1-0.1-6.2-0.1-9.1-0.2   c-2.9,0-5.5-0.1-7.7-0.2h1.2c1.2,0,2.7,0,4.7-0.1c2,0,4-0.1,5.9-0.2c1.9-0.1,3.6-0.1,5-0.2c1.4-0.1,2.1-0.1,2-0.2   c1.5,0,2.8,0,3.8,0c1,0,1.9,0.1,2.7,0.1c0.8,0,1.7,0.1,2.6,0.1c0.9,0,2,0,3.3,0c0.7,0,1.1-0.1,1.1-0.2c0-0.1-0.2-0.2-0.6-0.3   c-0.4-0.1-0.8-0.1-1.3-0.1h-12.2c-0.3,0-0.6-0.1-0.9-0.1c-0.4,0-0.6,0-0.8,0l-15.8,0.1c-1.6,0-3.1,0-4.5,0c-1.4,0-2.8,0-4.2,0   c2.1-1.1,4.3-2.4,6.6-3.9c2.3-1.5,4.4-3.3,6.2-5.3c1.9-2,3.5-4.2,4.7-6.6c1.2-2.4,1.9-5.1,1.9-8c0-1.8-0.3-3.7-1-5.8   c-0.7-2.1-1.5-3.8-2.4-5.2c-1-1.4-2.1-2.3-3.5-2.8c-1.4-0.4-2.7-0.6-3.8-0.6c-0.6,0-1.4,0.1-2.6,0.2c-1.2,0.2-2.5,0.3-4,0.6   c-1.5,0.2-3,0.5-4.7,0.7c-1.6,0.3-3.1,0.5-4.6,0.7c-1.4,0.2-2.7,0.4-3.8,0.6c-1.1,0.2-1.9,0.3-2.3,0.3c-0.3-0.2-0.6-0.2-0.8-0.2   c-0.5,0-1.1,0.3-2,0.8c-0.9,0.5-2,0.8-3.3,0.8c-0.1,0-0.2,0-0.3,0c-0.1,0-0.2,0-0.3,0c-0.2,0-0.4,0.1-0.6,0.2   c-0.2,0.2-0.3,0.5-0.3,1h-0.6c-0.6,0-1,0.1-1.3,0.2c-0.3,0.2-0.4,0.3-0.4,0.4c0,0.4-0.1,0.7-0.4,1c-0.3,0.3-0.6,0.6-0.9,0.9   c-0.4,0.3-0.7,0.5-1.1,0.8c-0.4,0.3-0.6,0.5-0.8,0.8l-1.2-0.4c-0.2,0.1-0.3,0.2-0.4,0.4c-0.3,0.3-0.4,0.5-0.4,0.6   c0,0.2,0.1,0.3,0.2,0.4c0.1,0.1,0.2,0.1,0.2,0.2c0.2,0.5,0.6,0.7,1.2,0.7c0.2,0,0.4,0,0.5-0.1c0,0.1,0,0.2,0,0.2c0,0.1,0,0.1,0,0.2   c0,0.4-0.1,0.7-0.3,0.9c-0.2,0.2-0.5,0.5-0.7,0.9c0.2,0.4,0.9,0.6,2,0.6c0.5,0,1,0,1.6,0c0.6,0,1.3,0,2.1,0c1.8,0,3.6,0,5.6,0   c2,0,3.9,0.1,5.6,0.1c1.8,0.1,3.3,0.1,4.7,0.3c1.4,0.1,2.3,0.3,2.8,0.4c-0.3,0.5-0.6,1.2-1.1,2.3c-0.5,1.1-1.2,2.4-2,3.9   c-0.8,1.5-1.8,3.1-3,4.8c-1.2,1.7-2.5,3.3-4.1,4.9c-1.5,1.6-3.3,3-5.2,4.3c-1.3,0.9-2.8,1.6-4.4,2.2c-0.6,0.2-1.2,0.4-1.9,0.6   c-0.1,0-0.1,0-0.2,0.1c-0.2,0-0.6-0.1-1-0.1c-0.2,0-0.5,0-0.8-0.1c-0.9,0-2.3-0.1-4.1-0.2c0-0.1,0.1-0.3,0.1-0.4   c0.4-1.2,0.8-2.5,1.2-3.8c0.5-1.4,1-2.9,1.4-4.4c0.5-1.5,0.8-3,1.1-4.5c0.3-1.5,0.5-3,0.5-4.5c0-0.4,0-0.8-0.1-1.3   c-0.1-0.5-0.1-0.9-0.1-1.3c0-0.4-0.2-0.8-0.5-1.3c-0.3-0.5-0.6-0.9-1-1.3c-0.4-0.4-0.7-0.7-1.1-1c-0.4-0.3-0.6-0.4-0.6-0.4   c-0.1-0.1-0.5-0.4-1.4-0.8c-0.9-0.4-1.8-0.8-3-1.3c-1.1-0.5-2.2-0.9-3.3-1.2c-0.5-0.2-0.9-0.3-1.2-0.4c-0.4-0.1-0.8-0.2-1-0.2   c-0.3,0-0.5,0.2-0.6,0.5c-0.1,0.2-0.1,0.3-0.2,0.5c-0.1,0.2-0.1,0.4-0.1,0.6c-0.1,0.5-0.1,0.9-0.2,1.4c-0.1,0.5-0.1,0.8-0.2,1   c-0.3,0.6-0.6,1.3-0.9,2.3c-0.4,1-0.8,2.1-1.2,3.3c-0.6,1-1.4,2.9-2.5,5.8c-0.9,2.5-2,5.8-3.4,10.1c0,0.1-0.1,0.3-0.1,0.4   c-0.1,0.3-0.2,0.6-0.3,1c-0.1,0.3-0.2,0.5-0.3,0.8c-4,0-7.3,0-10.1,0.1c-2.7,0.1-5,0.1-6.8,0.2c-1.8,0.1-3.2,0.1-4.2,0.2   c-1,0.1-1.7,0.2-2.2,0.3c-0.5,0.1-0.7,0.3-0.8,0.4c-0.1,0.1-0.2,0.2-0.2,0.3c0,0.2,0.2,0.4,0.7,0.5c-0.3,0.1-0.6,0.1-0.9,0.3   c-0.4,0.1-0.5,0.3-0.5,0.6c0,0.4,0.2,0.6,0.6,0.7c0.4,0.1,1.1,0.2,2.3,0.2c-0.8,0.2-1.1,0.3-1.1,0.4c0,0.1,1.1,0.3,3.4,0.5   c2.3,0.3,5.4,0.4,9.3,0.4h3.8h2.9c0.6,0,1.4,0,2.2,0c-0.1,0.2-0.1,0.4-0.2,0.6c-0.1,0.2-0.1,0.4-0.2,0.6c-0.3,0.8-0.5,1.6-0.8,2.4   c0,0.1,0,0.2-0.1,0.2c-1.5,4.6-2.8,8.7-3.8,12.2c-1.3,4.4-2.4,8-3.2,10.9c-0.8,2.8-1.4,4.9-1.7,6.3c-0.3,1.4-0.5,2.1-0.5,2.2v0.1   c0.1,0,0.2-0.3,0.5-1c0.3-0.7,0.6-1.5,1-2.4c0.4-0.9,0.8-1.9,1.2-3c0.4-1.1,0.8-2,1.1-2.7c0,0.4-0.2,1.3-0.5,2.5   c-0.3,1.3-0.6,2.6-1,4.1c-0.4,1.4-0.7,2.7-1,3.8c-0.3,1.1-0.4,1.7-0.4,1.8c0.1,0,0.2-0.3,0.4-0.9c0.2-0.6,0.5-1.5,1-2.8   c-0.3,1-0.5,1.9-0.7,2.8c-0.2,0.7-0.4,1.4-0.5,2c-0.2,0.6-0.2,1-0.2,1l-0.5,1.5c-0.2,0.6-0.2,1-0.2,1.2c0,0.2,0,0.2,0.1,0.2   c0.2,0,0.4-0.4,0.6-1.3c0.3-0.8,0.6-1.8,0.9-2.8c0.4-1,0.7-1.9,1-2.8c0.3-0.8,0.6-1.3,0.9-1.3c0.1,0,0.1,0,0.1,0.1l-1,3   c-0.2,0.6-0.3,1-0.3,1.2c0,0.1,0,0.2,0.1,0.2c0.1,0,0.3-0.2,0.5-0.6c0.2-0.4,0.4-0.8,0.6-1.3c0.4-1.1,0.7-1.9,1-2.5   c0.3-0.5,0.5-0.9,0.6-1.1c0.2-0.2,0.3-0.4,0.3-0.4c0.1,0,0.2-0.1,0.3-0.2c-0.4,1.2-0.7,2.2-0.9,2.9c-0.2,0.7-0.4,1.3-0.5,1.6   c-0.1,0.4-0.2,0.6-0.2,0.8c0,0.2,0,0.3,0,0.3c0,0.2,0,0.2,0.1,0.2c0.1,0,0.2-0.2,0.4-0.7c0.2-0.5,0.4-1,0.7-1.5   c0.3-0.6,0.6-1.3,1-2.2v0.2c-0.3,0.9-0.5,1.6-0.7,2.1c-0.2,0.5-0.4,1.2-0.7,2.2l0.2-0.2c-0.3,0.8-0.5,1.6-0.9,2.4   c-0.3,0.9-0.5,1.3-0.5,1.4l-0.2,0.6c-0.1,0.2-0.1,0.3-0.1,0.5c0,0.1,0,0.1,0.1,0.1c0.1,0,0.3-0.5,0.7-1.4c0.4-0.9,0.9-2,1.5-3.3   c0.6-1.3,1.3-2.6,2-3.9c0.7-1.3,1.5-2.4,2.2-3.2c-0.3,0.6-0.5,1.2-0.9,1.9c-0.3,0.7-0.7,1.4-1,2.2c-0.4,0.8-0.6,1.5-0.9,2.2   c-0.2,0.7-0.3,1.3-0.3,1.7c0,0,0,0.1,0.1,0.1c0.2,0,0.3-0.3,0.5-0.8l2.2-4.5l-0.5,1.7c-0.1,0.1-0.1,0.2-0.1,0.3   c0,0.4,0.2,0.6,0.6,0.6c1.8,0,3.3-1.1,4.7-3.3c1.4-2.2,2.8-5.2,4.2-9.2c1.1-3,2.2-5.6,3.3-7.8c1.2-2.2,2.3-4.1,3.6-5.6   c1.4,1,2.4,2,3.2,3c0.8,1,1.6,2.2,2.6,3.5c0.9,1.3,2.1,2.7,3.5,4.3c1.4,1.6,3.3,3.4,5.9,5.4c2.5,2,5.8,4.4,9.8,7   c4,2.6,9.1,5.5,15.3,8.8c1.1,0.6,2.4,1.1,4.1,1.7c1.6,0.6,3.4,1.1,5.3,1.7c1.9,0.5,3.8,1,5.8,1.5c2,0.5,3.9,0.8,5.6,1.2   c1.8,0.3,3.3,0.6,4.7,0.8c1.4,0.2,2.4,0.3,3.1,0.3c0.4,0,0.7,0.1,0.9,0.3c0.3,0.2,0.5,0.4,0.8,0.6c0.3,0.2,0.5,0.4,0.7,0.6   c0.2,0.2,0.5,0.3,0.8,0.3c0.6,0.2,1.2,0.2,1.8,0.2c0.7,0,1.3-0.1,1.9-0.2c0.5,0,1,0.1,1.5,0.3c0.5,0.2,1,0.4,1.6,0.6   c0.5,0.2,1.1,0.4,1.6,0.6c0.5,0.2,1.1,0.3,1.6,0.3c0.5,0,1-0.2,1.7-0.5c0.4-0.2,0.8-0.3,1.1-0.4l0.9-2.1L1158.5,121.3z    M1052.5,96.9c-0.1,0.6-0.2,0.9-0.2,1.1v0.2c0,0.1-0.1,0.4-0.2,0.8c-0.2,0.5-0.4,0.7-0.6,0.8c0-0.2,0.1-0.6,0.3-1.4   c0.2-0.8,0.4-1.6,0.6-2.4c0.1-0.4,0.2-0.7,0.3-1.1c0.1-0.3,0.1-0.5,0.2-0.8c0-0.2,0.1-0.3,0.1-0.5c0.2-0.7,0.3-1.1,0.3-1.2   c0,0.1-0.1,0.4-0.2,0.9c0,0.2-0.1,0.5-0.1,0.7c0,0.3-0.1,0.5-0.1,0.8c0,0.1,0,0.1,0,0.2C1052.7,95.7,1052.6,96.3,1052.5,96.9z    M1058.2,100.2c-0.2,0.4-0.5,0.8-0.7,1.2c-0.2,0.4-0.4,0.6-0.4,0.6v-0.1c0-0.2,0.1-0.5,0.3-1.1c0.2-0.6,0.5-1.5,0.9-2.7   c0,0,0-0.1,0.1-0.2c0-0.1,0.1-0.1,0.1-0.2c0-0.1,0.1-0.1,0.2-0.2l0.2,0.2c0.1,0.1,0.1,0.1,0.1,0.2c0,0.1,0,0.1,0.1,0.2l0.2,0.4   C1058.7,99.1,1058.4,99.7,1058.2,100.2z M1059.7,86.6c-0.4,1.2-0.9,2.5-1.4,3.8c-0.5,1.4-1,2.6-1.4,3.8c-0.4,1.2-0.8,2.2-1.1,3   c-0.3,0.8-0.5,1.1-0.5,1.1l-0.1-0.2c0-0.4,0.2-1.2,0.5-2.3c0.3-1.2,0.7-2.4,1.1-3.6c0.4-1.3,0.7-2.4,1.1-3.4c0.3-1,0.5-1.5,0.6-1.5   c0.2-0.1,0.4-0.4,0.6-1c0.3-0.6,0.5-1.2,0.8-1.9c0.3-0.7,0.5-1.3,0.7-1.9c0.2-0.6,0.4-0.9,0.5-1c0,0.3,0,0.4,0.1,0.5   c0,0.1,0,0.2,0.1,0.3C1060.7,84,1060.1,85.4,1059.7,86.6z M1063.3,96.5c-0.1,0.2-0.2,0.3-0.3,0.3c0.1,0,0-0.1-0.2-0.3   c-0.2-0.2-0.3-0.5-0.3-0.9c0-0.4,0.2-0.7,0.7-0.8c0,0,0-0.1,0.1-0.1c0.1,0,0.2,0,0.3-0.1c0,0.1,0.1,0.1,0.2,0.1   c0,0,0.1,0.1,0.2,0.2l0.2,0.3C1063.6,96,1063.4,96.4,1063.3,96.5z M1064.2,87.7c-0.1,0.1-0.1,0.1-0.1,0.2c0,0.1-0.1,0.1-0.1,0.2   l-0.4,0.3v-0.1c0-0.2,0-0.3,0.1-0.5c0-0.2,0.1-0.4,0.1-0.5c0,0.1,0,0.1,0.2,0.1c0.1,0.1,0.1,0.1,0.2,0.1c0.1,0,0.2,0.1,0.3,0.2   L1064.2,87.7z M1085.3,70.8c0-0.3,0.2-0.4,0.5-0.5c0.3-0.1,0.7-0.1,1.2-0.1c0.6,0,1.1,0,1.7,0.1c0.6,0.1,1.1,0.1,1.5,0.1l-4.9,0.8   V70.8z"/>
	<path class="st0" d="M1164.3,122.7C1164.3,122.7,1164.3,122.7,1164.3,122.7l0.2-0.4c-0.1-0.2-0.2-0.3-0.3-0.4   c-0.2,0.3-0.3,0.5-0.5,0.8c0.1,0,0.1,0,0.2,0C1164.1,122.8,1164.2,122.8,1164.3,122.7z"/>
	<path class="st0" d="M1159.4,121.6v-1.1l-0.8,0.8c0,0.6,0.1,1.1,0.2,1.4L1159.4,121.6z"/>
	<path class="st0" d="M1156.8,119.2c-0.2,0.6-0.4,1.1-0.6,1.6l-0.4,0.4h0.2l0.9-1.1h0.2c0.2-0.4,0.4-0.9,0.6-1.4   c-0.2-0.1-0.3-0.2-0.5-0.3C1157,118.7,1156.9,118.9,1156.8,119.2z"/>
	<path class="st0" d="M1162.7,124.3c-0.1,0.2-0.3,0.4-0.4,0.6c0.3,0.1,0.5,0.2,0.8,0.2l0.2-0.4   C1163.1,124.6,1162.9,124.5,1162.7,124.3z"/>
	<path class="st0" d="M1161.3,123.6c0.1-0.2,0.1-0.3,0.2-0.5c-0.1-0.2-0.1-0.5-0.1-0.8c0.1,0,0.2,0,0.4-0.1c0.2-0.4,0.3-0.8,0.5-1.2   c0-0.1,0-0.1,0.1-0.2c-0.2-0.1-0.5-0.2-0.7-0.2c-0.4-0.1-0.7-0.2-1-0.3c0,0,0,0,0,0c-0.2,0.4-0.5,0.8-0.7,1.1   c-0.6,1-0.9,1.4-1.1,1.4c0-0.1,0-0.1,0-0.1c0,0,0-0.1,0-0.1l-0.6,0.9c0.7,0.3,1.5,0.6,2.4,0.9c0.1,0,0.2,0.1,0.4,0.1   c0,0,0-0.1,0-0.1C1161.1,124,1161.2,123.8,1161.3,123.6z"/>
	<path class="st0" d="M1163.3,121.6l0.2-0.3c0,0,0,0-0.1,0l-0.6,0.6l-0.3,0.3c0,0,0.1,0,0.1,0L1163.3,121.6z"/>
	<path class="st0" d="M1050.7,108.5c0,0.2-0.2,0.5-0.4,1c-0.2,0.5-0.5,1-0.8,1.6c-0.3,0.6-0.5,1.1-0.8,1.7c-0.2,0.5-0.4,0.9-0.4,1.1   c-0.3,0.7-0.4,1.1-0.4,1.4c0.1,0,0.3-0.3,0.6-0.8c0.3-0.5,0.5-1,0.7-1.3V113c0-0.2,0.1-0.4,0.2-0.8c0.2-0.4,0.3-0.8,0.5-1.3   c0.2-0.5,0.3-0.9,0.5-1.4C1050.7,109,1050.7,108.7,1050.7,108.5z"/>
	<path class="st0" d="M1161,124.6C1161,124.6,1161.1,124.6,1161,124.6l0.9-0.8c-0.1-0.1-0.2-0.3-0.3-0.4l-0.3,0.3l-0.3,0.8V124.6z"/>
	<path class="st0" d="M1192.9,64.6c2.2,0,4.6-0.1,7.3-0.1c1-2.2,1.9-4.2,2.7-6.1c0,0,0,0,0,0c-0.2,0-0.5,0-0.7,0   c-0.5,0-0.8,0-0.8-0.2c0,0,0.3-0.2,0.8-0.3c0.3-0.1,0.6-0.2,1-0.3c0.1-0.2,0.2-0.5,0.3-0.7c-0.1,0-0.2,0-0.3,0.1   c-0.2,0.1-0.5,0.1-0.8,0.1c-0.5,0-0.7,0-0.7-0.2c0-0.2,0.5-0.3,1.4-0.5l0.7-0.1c0.2-0.4,0.3-0.9,0.5-1.3c0.3-0.8,0.6-1.5,0.9-2.3   c-0.3,0-0.6,0.1-0.8,0.1c-0.2,0-0.2,0-0.2-0.1c0-0.1,0.4-0.2,1.2-0.5c0.1-0.2,0.2-0.4,0.3-0.7l0,0c-0.4,0.1-0.8,0.2-1.3,0.2   c-0.5,0-0.8-0.1-0.8-0.3c0-0.2,0.2-0.3,0.5-0.4c0.4-0.1,0.7-0.1,1.1-0.2c0.2,0,0.5-0.1,0.7-0.2c0.3-0.8,0.6-1.5,0.8-2.3l-4.4,1.8   l-12.8,3.9l-5.9,2.3c-0.2,0.4-0.4,0.8-0.6,1.2c-1.2,2.4-2.1,4.3-2.9,5.8c-0.3,0.5-0.5,1-0.7,1.5c1.2-0.1,2.8-0.1,4.6-0.2   C1186.5,64.7,1189.4,64.6,1192.9,64.6z M1196.5,54.3c0.4-0.1,0.8-0.2,1.2-0.4c0.4-0.2,0.8-0.2,1.2-0.2c0,0,0.1,0,0.1,0   c0,0,0.1,0,0.1,0c-0.3,0.4-0.6,0.6-1.1,0.8c-0.5,0.2-0.9,0.3-1.2,0.3c-0.4,0-0.5-0.1-0.5-0.2C1196.2,54.6,1196.3,54.5,1196.5,54.3z   "/>
	<polygon class="st0" points="1157.4,111.6 1157.7,111.3 1157.8,111.2  "/>
	<path class="st0" d="M1160.7,133.2l2-3.3c0-0.6,0.6-1.9,1.7-3.9l-1.1,1.1L1160.7,133.2z"/>
	<path class="st0" d="M1184.4,69.5c-2.2-0.1-3.9-0.2-5-0.3c-1.1-0.1-1.7-0.2-2-0.3c-0.1,0.1-0.1,0.2-0.2,0.3   c-0.4,0.7-0.7,1.3-1.1,1.9c-0.4,0.6-0.8,1.5-1.3,2.5c-0.5,1-1.1,2.4-1.9,4.1c-0.8,1.7-1.8,3.9-3.1,6.7c-1.3,2.8-2.6,5.5-3.9,8.2   c-1.3,2.7-2.6,5.3-3.7,7.7c-1.1,2.4-2.1,4.5-3,6.4c-0.8,1.9-1.4,3.4-1.6,4.5l1-0.8c0.4-0.5,0.7-0.9,0.9-1.5   c0.3-0.5,0.4-1.1,0.4-1.6l1.1-1.1c0,0.8-0.2,1.5-0.6,2.1c-0.4,0.7-0.9,1.3-1.3,1.8l-0.4,0.2l-0.6,0.8l-0.5,0.2   c0,0.6-0.1,1.4-0.3,2.3c-0.2,0.9-0.5,1.8-0.9,2.5c-0.1,0-0.2,0-0.3,0.1c-0.2,0.1-0.3,0.3-0.3,0.5c0,0.2,0,0.2,0.1,0.2   c0.2,0,0.4-0.2,0.8-0.6c0.4-0.4,0.8-0.8,1.2-1.3c0.5-0.5,0.9-0.9,1.4-1.3c0.5-0.4,0.9-0.6,1.3-0.6c-1.6,2.1-2.8,3.8-3.6,5.1   c-0.3,0.4-0.5,0.8-0.7,1.1c-0.8,1.4-1.2,2.2-1.2,2.6c0,0.2,0.1,0.3,0.2,0.3c0.4,0,0.9-0.3,1.5-0.8c0.7-0.5,1.2-1,1.7-1.6   c-0.1,0.2-0.1,0.4-0.1,0.6c0,0.2,0,0.4,0,0.7l0.8-0.8v1.1l-0.6,1.1c0,0,0,0.1,0,0.1c0,0,0,0.1,0,0.1c0.2,0,0.5-0.5,1.1-1.4   c0.2-0.4,0.5-0.8,0.7-1.1c0.4-0.6,0.8-1.2,1.1-1.8v-0.2l0.4-0.4c0.5-0.7,0.9-1.3,1.2-1.7c0.4-0.5,0.6-0.7,0.8-0.7   c0.1,0,0.1,0,0.2,0.1c0,0.1-0.1,0.4-0.3,0.9c-0.2,0.5-0.5,1.1-0.8,1.9c-0.3,0.7-0.6,1.5-0.9,2.4c0,0.1,0,0.1-0.1,0.2   c-0.2,0.4-0.3,0.8-0.5,1.2c-0.1,0.3-0.2,0.6-0.3,0.8c-0.1,0.2-0.1,0.3-0.2,0.5l0.3-0.3l0.6-0.6l0.2-0.4l0,0l0.3-0.3l0.6-0.6   l0.4-0.4l-0.3,0.4l-0.1,0.1l-0.2,0.3l-0.7,0.7l-0.1,0.1c-0.3,0.4-0.5,0.8-0.5,1.2l-0.2,0.2l-0.8,0.8l-0.1,0.1v-0.1v-0.1   c0,0,0,0.1,0,0.1c-0.2,0.7-0.4,1.3-0.6,1.8c-0.2,0.6-0.3,0.9-0.3,1.1c0,0,0,0.1,0.1,0.1c0.2,0,0.6-0.4,1.2-1.2   c0.3-0.4,0.6-0.8,0.9-1.3c0.1-0.2,0.3-0.4,0.4-0.6c0.2-0.3,0.4-0.7,0.7-1.1c0.1-0.2,0.2-0.3,0.3-0.5c0.2-0.3,0.3-0.5,0.5-0.8   c0.5-0.8,1-1.7,1.6-2.5c0.8-1.4,1.6-2.7,2.3-3.9c0.7-1.2,1.5-2.6,2.4-4.1l-5.9,11l-0.2,0.4l-1.1,2.1l-0.2,0.4l-5.2,9.6l0.1,0.1   c0.2,0,0.6-0.6,1.4-1.9c0.8-1.2,1.8-2.8,2.9-4.6c1.1-1.8,2.3-3.9,3.6-6c1.3-2.2,2.4-4.2,3.5-6c1.1-1.8,2-3.4,2.8-4.6   c0.8-1.2,1.2-1.9,1.3-1.9v0.1c0,0.4-0.3,1.1-0.9,2.3c-0.6,1.2-1.4,2.6-2.3,4.2c-0.9,1.6-1.9,3.2-2.9,5c-1,1.7-1.9,3.3-2.7,4.6v1.1   l-1.7,2.9c0.3-0.3,0.5-0.4,0.8-0.5c0.3-0.1,0.4-0.3,0.4-0.6c0.3-0.6,0.8-1.4,1.4-2.4c0.6-1,1.1-1.8,1.3-2.4   c1.4-2.3,2.7-4.5,3.9-6.6c1.2-2.1,2.4-4.1,3.6-6v0.1l4.8-8.4c3-5.3,5.6-9.8,7.8-13.6c2.2-3.8,4-7,5.5-9.7c1.5-2.7,2.7-4.8,3.6-6.4   c0.8-1.6,1.5-2.8,2-3.8h-4C1189.8,69.6,1186.6,69.6,1184.4,69.5z M1157,120.1h-0.2l-0.9,1.1h-0.2l0.4-0.4c0.3-0.5,0.5-1,0.6-1.6   c0.1-0.3,0.2-0.5,0.3-0.8c0.2-0.3,0.3-0.5,0.6-0.7l1.1-1.1c-0.4,0.5-0.7,1-0.9,1.7c0,0.1-0.1,0.3-0.2,0.4   C1157.5,119.2,1157.2,119.7,1157,120.1z M1163.3,112.9l-1.1,1.1l0.2-0.5l1.1-1.1L1163.3,112.9z M1164.9,104.1l-0.2,0.3   c0,0-0.1,0-0.1,0c0,0-0.1,0-0.1,0L1164.9,104.1z M1166.5,111.9c0,0,0,0.1,0,0.1l-0.3,0.2l-0.9,1.6l-0.8,0.7l-0.2,0.4l-0.4,0.2   l0.6-0.6l0.8-1.4l1.4-1.4C1166.6,111.8,1166.5,111.9,1166.5,111.9z M1169,106l-1.1,1.1l1.7-1.8L1169,106z"/>
	<path class="st0" d="M1209.2,40.7c0.4-1.4,0.7-2.7,0.8-3.7c0.3-1.9,0.5-3.4,0.5-4.3v-2.8c0-0.7-0.3-1.4-0.9-2.2   c-0.6-0.8-1.4-1.5-2.3-2.2c-0.9-0.7-1.9-1.2-3-1.7c-1.1-0.4-2.1-0.6-3.1-0.6c-0.5,0-0.9,0-1.1,0.1c-0.2,0.1-0.5,0.5-1,1.4   c-0.5,0.9-1.1,2.1-1.9,3.4c-0.7,1.4-1.5,2.9-2.2,4.5c-0.8,1.6-1.5,3.1-2.2,4.5c-1,1.9-1.9,3.8-2.8,5.8c-0.5,1.2-1,2.3-1.5,3.4   l17.2-5.6H1209.2z"/>
	<path class="st0" d="M1179.7,68.3c-0.7,0-1.4,0-2,0c0,0.1-0.1,0.1-0.1,0.2c0,0,0.1,0,0.1,0C1178.2,68.5,1178.9,68.4,1179.7,68.3z"/>
	<polygon class="st0" points="1162.8,118 1162.8,117.3 1161.8,118.5 1161.8,119.1  "/>
	<path class="st0" d="M1158.5,121.3l-0.2,0.2l-0.9,2.1l-1.8,4.2l2.6-4.2l0.6-0.9C1158.6,122.4,1158.5,121.9,1158.5,121.3z"/>
	<path class="st0" d="M1161.3,123.6c-0.1,0.2-0.2,0.4-0.3,0.8L1161.3,123.6z"/>
	<path class="st0" d="M1318.2,67c0.1,0,0.2,0,0.3,0h1.6c0.9,0,1.4-0.1,1.4-0.2c0-0.1-0.7-0.2-2.1-0.3c-1.4-0.1-3.3-0.1-5.6-0.2   c-2.3-0.1-5-0.1-8.1-0.1c-3,0-6.2-0.1-9.4-0.1c-3.3,0-6.5-0.1-9.7-0.1c-3.2,0-6.2-0.1-8.9-0.1c0.4-1.5,0.8-3.1,1.3-4.8   c0.5-1.7,0.7-3.4,0.7-5c0-2.1-0.4-4.1-1.2-6c-0.8-1.9-1.9-3.7-3.1-5.3c-1.3-1.6-2.7-3.2-4.3-4.5c-1.6-1.4-3.1-2.5-4.6-3.5   c-1.5-1-2.9-1.7-4.1-2.3c-1.2-0.5-2.2-0.8-2.8-0.9c-1.3,0-2.7-0.2-4.1-0.3c-1.4-0.2-2.8-0.3-4.4-0.3c-4.6,0.1-8.6,0.5-11.9,1.1   c-3.4,0.7-6.2,1.3-8.4,2c-0.4-0.4-0.9-0.7-1.4-1.1c-0.6-0.4-1.2-0.8-1.9-1.4c-0.1-0.2-0.4-0.4-0.9-0.5c-0.5-0.1-1.1-0.2-1.7-0.3   c-0.6-0.1-1.2-0.1-1.7-0.2c-0.6,0-0.9,0-0.9,0c-0.5,0.7-1.2,1.9-2,3.4c-0.8,1.6-1.7,3.4-2.7,5.3c-1.1,0.4-2.1,0.7-3.1,1   c-0.5,0.1-1,0.3-1.4,0.4l-0.6,0.8c0.7-0.1,1.4-0.3,2.2-0.5c0.8-0.2,1.6-0.4,2.3-0.5l-1.2,2.5c-0.4,0.2-0.6,0.3-0.8,0.5h0.1   c0,0.1-0.4,0.3-1.2,0.7c-0.8,0.4-1.7,0.7-2.7,1.2c-1,0.4-1.9,0.8-2.7,1.2c-0.8,0.4-1.2,0.6-1.2,0.8c0,0.1,0,0.1,0,0.2   c0,0.1,0,0.1,0,0.2c0,0.4-0.2,0.7-0.5,0.8c-0.1,0-0.3,0.1-0.4,0.1c-0.2,0.1-0.5,0.1-0.7,0.2c-0.4,0.1-0.8,0.1-1.1,0.2   c-0.4,0.1-0.5,0.2-0.5,0.4c0,0.2,0.3,0.3,0.8,0.3c0.5,0,0.9,0,1.3-0.2l0,0l7.7-2.3c-0.1,0.2-0.2,0.4-0.3,0.6   c-0.1,0.2-0.2,0.4-0.3,0.6c-3.2,0.8-5.4,1.3-6.7,1.7c-0.3,0.1-0.5,0.1-0.7,0.2c-0.8,0.2-1.2,0.4-1.2,0.5c0,0.1,0.1,0.1,0.2,0.1   c0.2,0,0.4,0,0.8-0.1c0.1,0,0.3,0,0.4-0.1c0.6-0.1,1.2-0.2,1.9-0.3c0.7-0.1,1.5-0.2,2.3-0.3c0.8-0.1,1.6-0.3,2.3-0.4l-0.4,0.8   c-0.7,0.3-1.4,0.5-2.2,0.7c-0.7,0.2-1.4,0.5-2,0.7c-0.6,0.2-1.1,0.4-1.5,0.6c-0.4,0.2-0.6,0.3-0.6,0.3c0,0.1,0.1,0.1,0.2,0.1   c0.3,0,0.7,0,1.3-0.1c0.6-0.1,1.5-0.2,2.7-0.5c-0.3,0.1-0.7,0.3-1.3,0.5c-0.5,0.2-1.1,0.4-1.7,0.6c-0.6,0.2-1.1,0.4-1.5,0.6   c-0.4,0.2-0.7,0.3-0.7,0.3l-0.8,0.2l-0.7,0.1c-0.9,0.2-1.4,0.4-1.4,0.5c0,0.1,0.2,0.2,0.7,0.2c0.3,0,0.6,0,0.8-0.1   c0.1,0,0.2,0,0.3-0.1c1.2-0.3,2.4-0.5,3.5-0.8c1.2-0.3,2.3-0.6,3.4-0.9l-0.2,0.4c-1.1,0.3-2.2,0.6-3.3,0.9c-1.1,0.3-2,0.5-2.8,0.8   c-0.4,0.1-0.7,0.2-1,0.3c-0.4,0.1-0.7,0.2-1,0.3c-0.5,0.2-0.8,0.3-0.8,0.3c0,0.1,0.3,0.2,0.8,0.2c0.3,0,0.5,0,0.7,0c0,0,0,0,0,0   c0.2,0,0.5-0.1,0.7-0.1l6.2-1.7l-4,7.9c-2,0-3.9,0-5.6,0.1c-2.7,0-5.2,0.1-7.3,0.1c-3.5,0.1-6.5,0.1-8.7,0.2   c-1.9,0-3.4,0.1-4.6,0.2c-0.3,0-0.5,0-0.7,0c-1.3,0.1-2.2,0.2-2.8,0.3c-0.6,0.1-1,0.2-1.1,0.3c-0.1,0.1-0.2,0.2-0.2,0.3   c0,0.3,0.5,0.5,1.4,0.5c-0.7,0.1-1.4,0.1-2.1,0.3c-0.7,0.1-1.1,0.3-1.1,0.6c0,0.4,0.5,0.7,1.4,0.8c0.7,0.1,1.8,0.2,3.5,0.2   c0.6,0,1.3,0,2,0c-0.9,0.1-1.5,0.2-2,0.2c0,0-0.1,0-0.1,0c-0.4,0-0.6,0.1-0.6,0.2c0,0.1,0.1,0.1,0.4,0.2c0,0,0,0,0,0   c0.3,0.1,0.9,0.2,2,0.3c1.1,0.1,2.8,0.2,5,0.3c2.2,0.1,5.4,0.1,9.4,0.1h4h5.6c-0.4,0.9-0.7,1.9-0.9,3.1c-1,1.8-2.1,3.9-3.3,6.3   c-1.2,2.4-2.4,4.8-3.6,7.3c-1.2,2.5-2.4,5-3.5,7.3c-1.1,2.4-2.1,4.5-3,6.3c-0.9,1.8-1.6,3.3-2.1,4.3c-0.5,1.1-0.8,1.5-0.8,1.3v0.1   c0.1,0,0.4-0.4,0.8-1.1c-0.6,1.7-1,3.1-1.3,4.1l-0.4,0.4l0.3-0.2c0,0.4,0,0.7,0,1.1c0,0.4-0.1,0.7-0.2,1.1   c-0.4,0.8-0.8,1.5-1.2,2.3c-0.4,0.8-0.8,1.4-1.1,2c-0.3,0.6-0.7,1.3-1.1,2l-0.8,1.4c-0.4,0.7-0.5,1.1-0.5,1.2c0,0.1,0,0.2,0.1,0.2   c0.3,0,0.6-0.4,0.9-1.1l2.9-5.2c0.3-0.3,0.5-0.6,0.9-0.9c0.3-0.4,0.7-0.7,1-1.1c0.4-0.4,0.7-0.6,1.1-0.9c0.4-0.2,0.7-0.3,1-0.3   c-2.1,2.8-3.5,4.9-4.3,6.2c-0.8,1.3-1.2,2.2-1.2,2.6c0,0.2,0.1,0.3,0.2,0.3c0.3,0,0.8-0.3,1.5-0.8c0.7-0.5,1.3-1,1.8-1.6   c0,0.2-0.1,0.4-0.1,0.6c0,0.2,0,0.4,0,0.7l-0.2,0.2l-2.7,6.2l3.2-5.1c0,0,0,0.1,0.1,0.1c0.1,0,0.1,0.1,0.1,0.1   c0.2-0.1,0.6-0.6,1.1-1.6c0.6-0.9,1.1-1.9,1.7-2.8v0.5l1.1-1.1v-0.7l-0.7,0.7c0.5-0.7,0.9-1.3,1.2-1.7c0.4-0.5,0.6-0.7,0.8-0.7   c0.1,0,0.1,0,0.2,0.1c0,0.2-0.2,0.7-0.6,1.7c-0.4,1-0.9,2.2-1.4,3.4c-0.5,1.3-1,2.5-1.4,3.8c-0.5,1.2-0.7,2.2-0.8,2.8   c0,0,0,0.1,0.1,0.1c0.2,0,0.6-0.4,1.2-1.2c0.6-0.8,1.2-1.8,2-3c0.8-1.2,1.6-2.5,2.4-3.9c0.8-1.4,1.6-2.7,2.3-3.9   c0.7-1.2,1.5-2.6,2.4-4.1l-12.7,23.3c0.2,0,0.7-0.8,1.8-2.4c1-1.6,2.3-3.6,3.8-6.1c1.5-2.4,3.1-5.2,4.9-8.2c1.8-3,3.5-6,5.2-8.9   l0.3,1c-0.9,1.5-1.7,2.9-2.6,4.4c-0.9,1.5-1.7,2.9-2.5,4.3c-0.8,1.4-1.6,2.7-2.3,3.9c-0.7,1.2-1.4,2.3-1.9,3.3v-0.2l-1.1,1.1   l-2.7,6.2l2-3.3v0.1c0.3-0.3,0.5-0.4,0.8-0.5c0.3-0.1,0.4-0.3,0.4-0.6c0.3-0.6,0.8-1.4,1.4-2.4c0.6-1,1.1-1.8,1.3-2.4l7.5-12.7   l1.7-2.9c0.3,0.9,1.9,1.8,4.9,2.7c3,0.9,7.3,1.3,12.9,1.3c3.1,0,6.3-0.4,9.8-1.2c3.4-0.8,6.9-1.9,10.4-3.5c3.5-1.5,7-3.5,10.4-5.8   c3.4-2.3,6.7-5,9.7-8c3-3,5.8-6.4,8.3-10.2c2.5-3.8,4.6-8,6.2-12.5c7.5-0.2,13.9-0.4,19.4-0.6c5.4-0.2,9.9-0.3,13.5-0.5   c3.6-0.1,6.3-0.3,8.1-0.3c1.8-0.1,2.9-0.1,3.2-0.1v0.1l0.8-0.1l-1.3-0.2c-0.3,0-0.7,0-1.3,0c-0.6,0-0.9-0.1-1-0.2h0.1   C1318,67,1318.1,67,1318.2,67z M1195.4,97.9l-0.3,0.8c-0.1,0.1-0.1,0.1-0.2,0.1L1195.4,97.9z M1191.9,102.7   c-0.2,0.4-0.3,0.8-0.5,1.2c-0.2,0.4-0.4,0.8-0.5,1.2l-0.1,0.1l0.6-3c0.1-0.3,0.2-0.4,0.4-0.4c0.2,0,0.3,0,0.5,0.1   c0.2,0.1,0.3,0.1,0.4,0.1L1191.9,102.7z M1194,99.8l-0.5,0.4l1-1.4L1194,99.8z M1196.1,106.2c-0.2,0.7-0.4,1.5-0.6,2.2l-1,0.8   c0.2-0.7,0.3-1.4,0.5-2.1c0.2-0.7,0.4-1.4,0.5-2.2l1.1-1.1C1196.5,104.7,1196.4,105.5,1196.1,106.2z M1199.5,101.8   c-0.3,0.5-0.5,0.8-0.8,1.1c-0.2,0.2-0.3,0.3-0.3,0.4c0.1-0.4,0.3-0.8,0.5-1.2c0.2-0.4,0.5-0.8,0.7-1.2l0.1-0.1l0.2,0.5   L1199.5,101.8z M1205.2,104.8c-0.3,0-0.6,0.1-0.9,0.4l0.9-1.5c0.3,0,0.5,0.2,0.5,0.5C1205.6,104.6,1205.5,104.8,1205.2,104.8z    M1232.4,46.3c0.3,0,0.5-0.1,0.6-0.1c0.2,0,0.3,0,0.4,0c0.1,0.1-0.3,0.3-1.1,0.5V46.3z M1231.9,49.9l1.1-0.2h0.5l-1.7,0.5V49.9z    M1247.7,80.6c-2.5,3.5-5.2,6.6-8,9.2c-2.8,2.6-5.6,4.7-8.4,6.2c-2.8,1.5-5.4,2.3-7.8,2.3c-2.4,0-4.1-0.1-5.3-0.2   c-1.1-0.1-2-0.2-2.5-0.2c-0.5-0.1-0.9-0.2-1.2-0.2c-0.3-0.1-0.7-0.1-1.3-0.1c-0.7,0-1.4,0.1-2.2,0.2c-0.8,0.1-1.8,0.5-3.1,1.2   c1.4-2.5,2.9-5.2,4.5-8.1c1.6-2.9,3.1-5.6,4.6-8.1c1.4-2.5,2.7-4.8,3.8-6.7c1.1-1.9,1.8-3.2,2.1-3.9c0.3-0.4,0.5-0.8,0.7-1.3   c0.2-0.4,0.4-0.8,0.6-1.2l30-0.2C1252.4,73.4,1250.2,77.1,1247.7,80.6z M1257.6,60.1c-0.5,1.7-1,3.4-1.6,5l-29.3-0.5   c1.4-3.1,2.5-5.7,3.3-7.9c0.8-2.2,1.3-4.1,1.7-5.7l5.8-1.3l0.8-0.2l3.3-0.2c0.5,0,1-0.1,1.6-0.2c0.6-0.1,1.3-0.1,1.9-0.2   c0.7,0,1.3,0,1.9-0.1c0.6,0,1,0,1.4,0c3.3,0,5.8,0.5,7.5,1.6c1.7,1.1,2.5,2.8,2.5,5.3C1258.4,57,1258.1,58.4,1257.6,60.1z"/>
	<path class="st0" d="M1211.2,46.2c0.4-0.1,0.8-0.3,1.3-0.4c-0.5,0.1-1,0.1-1.5,0.2c-0.5,0.1-0.7,0.2-0.7,0.3l0.1,0.1   C1210.5,46.4,1210.8,46.4,1211.2,46.2z"/>
	<path class="st0" d="M1212.5,44.7c0.2,0,0.5,0,0.9-0.1c0.4-0.1,0.8-0.2,1.1-0.3c0.4-0.1,0.7-0.2,1-0.3c0.3-0.1,0.4-0.2,0.4-0.2   c0,0-0.1-0.1-0.2-0.1c-0.3,0-0.7,0-1.1,0.1c-0.4,0.1-0.8,0.2-1.2,0.3c-0.4,0.1-0.7,0.2-0.9,0.3c-0.3,0.1-0.4,0.1-0.4,0.2   C1212.1,44.6,1212.2,44.7,1212.5,44.7z"/>
	<path class="st0" d="M1213.7,45.7l0.7-0.3h-0.1c-0.3,0-0.5,0.1-0.8,0.2c-0.3,0.1-0.6,0.2-1,0.3c0.3-0.1,0.6-0.1,0.8-0.1   C1213.5,45.7,1213.6,45.7,1213.7,45.7z"/>
	<path class="st0" d="M1196.8,54.9c0.3,0,0.7-0.1,1.2-0.3c0.5-0.2,0.9-0.5,1.1-0.8c-0.1,0-0.1,0-0.1,0c0,0-0.1,0-0.1,0   c-0.4,0-0.7,0.1-1.2,0.2c-0.4,0.2-0.8,0.3-1.2,0.4c-0.2,0.2-0.2,0.3-0.2,0.4C1196.2,54.8,1196.4,54.9,1196.8,54.9z"/>
</g>
</svg>